<svg xmlns="http://www.w3.org/2000/svg" viewBox="0 0 400 400" fill-rule="evenodd"><path d="M190.52 14.374c-4.233.327-3.935-.435-3.824 9.765.123 11.214-.502 10.407 7.824 10.11 6.465-.23 7.034-.42 6.766-2.24-.196-1.34-.06-1.31-5.16-1.212-3.525.067-4.76-.77-4.314-2.922.337-1.626 1.178-2.273 2.965-2.278 3.347-.01 4.424-.412 4.424-1.648 0-.8-.206-1.16-.7-1.192-.385-.024-1.73-.08-2.986-.126-6.187-.22-5.3-5.003.99-5.34 3.16-.17 4.64-.848 4.686-2.148.03-.85-4.963-1.21-10.67-.77m31.88 3.675c-.27 1.623-.74 3.558-1.045 4.3s-.555 2.347-.555 3.567-.2 3.36-.442 4.757c-1.043 5.99 3.22 6.43 4.427.46 1.05-5.2 5.424-4.05 5.58 1.468.1 3.2 1.315 4.6 3.996 4.6 1.42 0 1.64-1.248.806-4.56-.627-2.5.048-4.6 2.05-6.408 5.835-5.27 1.272-9.32-12.273-10.895l-2.055-.24-.5 2.952m-53.526-1.375c-1.062.424-1.306 2.09-.642 4.376.965 3.32-.773 5.335-4.067 4.717-1.773-.333-2.248-.992-2.604-3.614-.426-3.143-2.2-4.34-4.36-2.96-.82.522-.705 5.857.164 7.537.344.665.822 2.97 1.062 5.12.733 6.572 2.727 8.784 5.432 6.023.828-.844.837-.956.268-3.176-.996-3.878 1.11-6.58 4.473-5.735 1.185.297 2.2 2.244 2.2 4.217 0 1.955 1.915 3.823 3.28 3.2 1.708-.78 2.106-2.29 1.384-5.26-.59-2.432-1.913-8.933-2.44-12-.4-2.336-2.024-3.3-4.15-2.44m63.957 3.695c2.162 2.162.882 4.43-2.5 4.43-2.335 0-3.53-.97-3.53-2.87 0-2.897 3.73-3.863 6.03-1.562m18.877 4.53c-1.664 4.44-2.395 6.67-3.505 10.7l-.937 3.4 1.006 1.063c.56.6 1.656 1.176 2.467 1.317.804.14 3.105.825 5.113 1.523 4.33 1.504 5.756 1.294 5.448-.8-.16-1.096-.364-1.218-3.107-1.865-3.738-.88-5.093-2.018-4.917-4.128.187-2.242 1.55-2.877 4.163-1.943 3.522 1.258 4.018 1.257 4.337-.013.312-1.24-.495-2.153-1.905-2.153-2.372 0-4.417-2.682-3.53-4.63.593-1.303 3.704-1.484 5.482-.32 2.666 1.747 4.893 1.173 4.114-1.06-.3-.858-.725-1.173-1.862-1.378-.81-.146-2.195-.592-3.075-.99-1.86-.843-6.09-2.023-7.253-2.023-.637 0-1.055.677-2.04 3.3m-109.58-1.254c-.465.465-1.54.997-2.39 1.183-6.79 1.484-10.703 5.17-5.49 5.17 2.165 0 3.335.673 3.996 2.297a74.14 74.14 0 0 0 1.38 3.129c.424.895.778 2.065.788 2.6.045 2.493 2.484 6.192 3.94 5.976 2.502-.372 2.572-3.028.202-7.695-.528-1.04-.96-2.267-.96-2.726s-.2-1.207-.444-1.663c-1.206-2.253-1.155-3.01.298-4.395 2.206-2.108 2.345-2.577 1.104-3.727-1.304-1.208-1.364-1.212-2.426-.15m135.47 8.78c-4.558 1.91-4.25 7.775.562 10.75 1.864 1.152 2.638 2.292 2.638 3.89 0 1.433-1.442 2.852-2.164 2.13-.218-.218-.692-.396-1.053-.396s-1.418-.902-2.347-2.004c-3.605-4.275-6.778-3.86-4.4.574 2.206 4.116 9.195 6.713 12.525 4.654 2.885-1.782 4.2-5.72 2.485-7.436-.345-.345-.766-.848-.936-1.117s-1.324-1.345-2.564-2.39c-3.3-2.78-3.524-5.48-.455-5.48 1.237 0 1.742.303 3.286 1.967 3.028 3.265 5.857 1.523 2.913-1.794-2.782-3.135-7.444-4.622-10.49-3.346m-165.6 4.405c-.55.447-1.72 1.165-2.6 1.595-3.55 1.733-4.984 2.645-5.8 3.695l-.867 1.102 1.04 1.36c.57.75 1.038 1.622 1.038 1.94s.253.788.563 1.045.866 1.045 1.237 1.75a136.77 136.77 0 0 0 1.813 3.282c.627 1.1 1.465 2.63 1.863 3.398 1.397 2.697 2.453 3.585 3.734 3.14 2.093-.73 2.488-1.928 1.312-3.974-2.148-3.734-1.87-5.725.99-7.066 1.558-.73 2.467-3.233 1.214-3.343-1.278-.112-2.19.177-3.037.963-1.097 1.016-3.62 1.013-4.388-.006-1.394-1.85.113-4.384 3.523-5.922 1.675-.755 2.667-2.54 1.86-3.345-.694-.694-2.386-.506-3.484.388m190.05 8.074c-.453.49-1.54 1.884-2.418 3.094s-1.767 2.4-1.977 2.644-.762 1.19-1.227 2.1-1 1.656-1.188 1.656-.74 1.06-1.223 2.352l-.88 2.353 1.015 2.002c2.336 4.61 8.354 7.17 11.76 5.002 1.406-.894 3.686-3.33 3.686-3.938 0-.26.288-.712.64-1.004s1.428-1.737 2.4-3.212 1.923-2.743 2.133-2.818c.985-.353.645-2.502-.483-3.053-1.31-.64-1.8-.36-3.345 1.9l-4.222 6.076c-2.355 3.358-5.602 4.068-7.5 1.64-1.38-1.754-.45-3.938 4.39-10.31 2.664-3.508 2.9-4.197 1.86-5.462-1.457-1.77-2.446-2.07-3.4-1.032m-214.9 9.085c-5.092 2.07-7.577 7.637-5.362 12.01.55 1.085 1 2.212 1 2.505s.9 1.217 2 2.056 2 1.673 2 1.854c0 .584 4.427 1.272 6.342.985 6.156-.923 9.632-7.323 7-12.887-2.766-5.846-8.078-8.515-12.98-6.522m4.657 4.48c4.974 4.368 6.234 9.797 2.57 11.074-3.22 1.123-9.786-5.885-8.92-9.52.705-2.963 3.866-3.736 6.352-1.554m231.78 7.033C312.515 75.93 312.2 76.33 314.04 78.04c1.206 1.126 3.158 1.586 3.158.744 0-.718 3.36-3.574 4.21-3.58 2.688-.017 3.103 1.75 1.245 5.314-1.338 2.568-2 4.68-1.464 4.68.155 0 .625.638 1.045 1.418 1.04 1.93 3.337 1.477 3.357-.664.003-.355.333-1.075.733-1.6s.96-1.533 1.243-2.24c.535-1.334.765-1.462 3.43-1.915 2.825-.48 4.07-1.232 5.184-3.135l1.06-1.8-.906-2.105c-.498-1.158-1.726-2.925-2.73-3.927s-2.766-2.846-3.918-4.098-2.254-2.376-2.45-2.497-1.837 1.174-3.646 2.877m7.392 5.563c1.213 1.6 1.31 1.902.934 2.983-1.13 3.24-5.82 2.018-6.48-1.687-.654-3.676 3.065-4.545 5.546-1.296M56.347 84.558c-1.474 1.116-2.324 3.84-1.2 3.843.14 0 .883.552 1.653 1.226a41.97 41.97 0 0 0 3.2 2.459c1 .68 2.26 1.703 2.824 2.275 3.998 4.06 8.376 6.2 8.376 4.096 0-.2 1.448-2.125 3.22-4.28 3.475-4.228 3.772-5.192 1.882-6.095-1.195-.57-1.59-.3-3.855 2.658-1.977 2.58-4.106 2.424-7.196-.523a53.2 53.2 0 0 0-3.75-3.209c-1.045-.795-1.9-1.586-1.9-1.76 0-.606-2.63-1.165-3.253-.69m290.05.94c-1.413 1.304-4.238 3.295-4.68 3.298-.264.002-.624.258-.8.57s-1.306 1.24-2.51 2.07-2.544 1.833-2.976 2.235-.94.73-1.13.73c-2.43 0-2.718 4.117-.362 5.19 1.018.464 1.056.446 3.574-1.68 4.08-3.446 6.425.456 2.865 4.765-1.906 2.306-2.003 3.547-.446 5.697l1.134 1.564 1.032-.868c.568-.477 1.34-1.498 1.714-2.268 1.72-3.532 2.245-3.9 5.8-4.062 6.26-.284 7.854-4.41 3.836-9.938-1.04-1.43-1.995-2.915-2.12-3.3s-.393-.7-.59-.7-.683-.533-1.08-1.184c-1.154-1.9-2.536-2.794-3.268-2.118m3.443 6.95c1.174 1.296 1.255 4.898.13 5.687-1.32.925-4.372-.07-4.372-1.426 0-.2-.24-.607-.536-.902-.77-.77-.344-2.886.754-3.75 1.127-.887 3.038-.7 4.025.4M45.9 99.1c-.57.605-1.32 1.73-1.667 2.5-.68 1.514-1.15 2.304-2.544 4.273-2.687 3.798-2.243 4.613 4.42 8.094 1.276.667 3.076 1.728 4 2.358 5.725 3.905 6.618 4.13 7.777 1.955.792-1.488 1.556-2.744 4.003-6.587 2.21-3.47 2.213-4.497.013-5.036-.93-.227-1.178-.09-1.71.94-.342.662-.798 1.204-1.012 1.204s-.4.36-.4.8c0 .878-2.9 4.005-3.7 3.99-2.855-.05-2.987-3.437-.292-7.484l.86-1.293-1.01-.46c-1.438-.656-2.066-.274-3.668 2.23-1.325 2.07-1.52 2.214-3 2.214-2.935 0-3.1-2.872-.353-6.515 1.816-2.416 1.923-3.187.532-3.82-1.282-.584-1.06-.646-2.27.636m316.9 12.414c0 .22-.675.683-1.5 1.03a33.51 33.51 0 0 0-2.5 1.178c-1.883 1.03-3.403 1.827-6.6 3.462-1.76.9-3.716 2.09-4.347 2.647l-1.147 1.01 1.27 2.278c.698 1.254 1.627 3.09 2.065 4.08s.968 2.07 1.18 2.4.69 1.193 1.065 1.92c.79 1.53 2.252 1.646 3.174.25.5-.744.396-1.12-.876-3.518-1.838-3.464-1.87-6.194-.082-6.82 1.474-.516 3.1.678 3.862 2.835.785 2.22 2.67 3.34 3.297 1.962.352-.772.248-1.357-.557-3.115-1.237-2.7-.847-4.606 1.072-5.24 1.395-.462 3.475 1.576 4.28 4.192.247.804.945 1.83 1.55 2.276l1.1.813.848-.902.847-.902-.814-1.774c-.447-.976-.98-2.045-1.185-2.375-1.2-1.94-2.865-5.123-3.28-6.27-.264-.73-.7-1.33-.968-1.33s-.77-.11-1.12-.243-.633-.063-.633.157m-328.2 12.4c-1.675 1.085-3.587 3.735-4.046 5.606-.145.593-.76 2.054-1.366 3.247-1.47 2.892-.87 4.81 1.513 4.826.488.003 2.644.906 4.792 2.006s4.088 2.01 4.312 2.024 1.49.53 2.81 1.153c2.174 1.023 2.5 1.078 3.472.58 2.387-1.223 1.975-4.166-.684-4.877-3.343-.894-4.182-3-2.747-6.93 2.13-5.82-3.143-10.818-8.055-7.635m4.426 5.024c1.568 2.238-.148 5.86-2.777 5.86-1.094 0-2.635-1.64-2.635-2.803 0-3.553 3.63-5.604 5.412-3.058m327.4 8.893c-1.2.52-2.493.95-2.85.956s-.875.282-1.15.612-.74.6-1.04.6-.82.54-1.16 1.2-.778 1.2-.97 1.2c-.57 0-1.23 2.376-1.23 4.44 0 2.547.918 4.44 3.15 6.5l1.29 1.18c1.666 1.52 4.527 1.228 4.7-.48.13-1.35-1.337-3.185-2.576-3.225-4.14-.133-2.938-5.734 1.686-7.85 4.277-1.957 10.718-.287 7.287 1.89-.403.255-.368.335.146.34 1.48.013 1.223 2.305-.373 3.326-.275.176-.5.845-.5 1.487 0 2.742 4.037 2.5 5.14-.32 3.05-7.77-4.05-15.064-11.54-11.854m-329.32 15.623c-.14.14-1.205.312-2.367.382-12.86.78-11.827.518-12.73 3.22-.66 1.97.074 4.543 1.292 4.543.415 0 9.378 5.314 12.127 7.19 3.992 2.723 6.497.155 2.634-2.7-1.477-1.093-1.72-2.54-.77-4.617 1.253-2.74 1.35-2.85 2.975-3.38 2.756-.9 3.803-3.056 2.072-4.268-.878-.615-4.716-.885-5.232-.368m-4.44 4.79c2.314 1.098 1.584 4.154-.992 4.154-2.535 0-3.845-3.036-1.79-4.15 1.42-.77 1.174-.77 2.783-.005m347.65 3.716c-.377.64-.686 1.595-.686 2.124 0 1.163-1.35 2.714-2.365 2.714-.404 0-1.477.262-2.385.582s-3.536.795-5.842 1.054l-4.192.472-.243 1.294c-.567 3.025-.362 3.213 3.376 3.073 2.098-.078 4.08-.413 5.308-.898 4.87-1.92 7.225-1.362 9.427 2.233 1.322 2.158 3.032-2.077 1.917-4.747-.33-.79-.785-2.74-1.01-4.334-.587-4.137-2.04-5.706-3.304-3.567m-362.18 17.9c-.705 2.022.29 3.338 2.525 3.338 4.286 0 6.447 3.72 3.736 6.43-.66.66-1.265.795-3.29.73-3.748-.12-4.28.153-4.28 2.202 0 2.384.61 2.576 10.338 3.26 7.564.532 8.254.526 8.93-.085 1.953-1.768.17-4.428-2.983-4.452-2.795-.022-3.885-.876-3.885-3.042 0-3.13 1.1-3.986 4.7-3.65 3.366.315 4.073-.107 4.097-2.447.023-2.2-2.3-2.762-13.086-3.206l-6.38-.263-.412 1.182m357.9 6.425c-9.496.632-9.605.67-9.594 3.29.012 2.776-1.313 2.662 14.7 1.263 4.11-.36 5.295-.995 5.295-2.84 0-.92-1.113-2.518-1.63-2.343-.093.03-4.04.315-8.77.63m-5.433 17.35c-4.032 2.124-5.654 5.863-4.595 10.595 1.753 7.83 13.918 9.763 18.633 2.96 2.013-2.905 1.886-8.702-.238-10.826-.367-.367-.735-.826-.817-1.02-1.094-2.577-9.286-3.655-12.983-1.708m-339.07 3.438c-1.435.375-.904 2.777.873 3.954 6.483 4.3.28 9.45-9.066 7.54-1.81-.37-2.827-4.388-1.407-5.553l1.558-1.297c2.602-2.188.752-4.748-2.314-3.2-7.093 3.58-3.25 14.78 5.28 15.39 11.165.8 16.624-10.4 7.857-16.12-.835-.544-1.645-.97-1.8-.944s-.597.13-.982.23m348.63 1.763c1.2.796 1.953 1.62 2.102 2.3.127.584.3 1.288.387 1.566.75 2.43-6.463 4.43-9.86 2.736-.707-.352-1.524-.64-1.815-.64-2.433 0-1.848-6.21.652-6.933 2.473-.717 6.713-.234 8.534.972m-201.88 1.66c-.697.52-.54.76 2.46 3.728 2.587 2.56 3.488 3.79 4.68 6.385 2.135 4.647 3.824 5.498 4.964 2.5.643-1.693 2.676-.733 3.867 1.827l.904 1.94.65-.99c.54-.826.576-1.283.21-2.74l-.648-2.587c-.21-.854.735-2.163 1.564-2.163.245 0 1.314.9 2.376 2.003l1.93 2.003.795-1.303c.436-.717.858-1.483.937-1.703.282-.79 1.86 1.13 1.86 2.262 0 2.28 2.047 3.423 2.75 1.538l.884-2.367c.644-1.73 2.576-1.02 3.164 1.163.566 2.102 1.4 2.3 2.505.598.91-1.404 1.33-1.616 2.156-1.088.62.396.764 1.273.424 2.56-.156.587-.148 1.43.017 1.874.382 1.03 4.3-1.9 4.746-3.54.53-1.995 2.786-5.716 4.21-6.944 4.366-3.765 4.944-4.52 3.705-4.83-.533-.134-11.37-.23-24.08-.216s-23.824-.084-24.696-.22c-1.064-.165-1.83-.064-2.33.3m-13.623 10.65c-1.138 1.84-.044 34.488 1.24 36.98.32.622.688 2.402.818 3.956.188 2.233.517 3.3 1.575 5.046.735 1.222 1.343 2.592 1.35 3.044s.272 1.274.586 1.824.578 1.597.586 2.326c.016 1.5.55 2.684 1.775 3.924.808.818 1.82 2.203 3.473 4.75 1.562 2.406 2.843 4.052 5.08 6.524 3.23 3.57 8.837 9.276 9.114 9.276.128 0 1.244.724 2.48 1.6 3.24 2.32 4.067 1.558 3.36-3.093-.63-4.13-.588-7.434.125-10.112l.584-2.194-1.377-1.41c-.756-.776-1.587-2.015-1.844-2.755l-.47-1.345-.617 1.017c-.964 1.59-3.55 2.472-3.933 1.343-.375-1.1-.2-2.237.502-3.24.626-.894.75-2.22.206-2.22-.195 0-.625.414-.956.92-2.164 3.302-5.007 1.266-3.32-2.378 1.404-3.033.9-3.683-1.37-1.73-2.81 2.425-5.656 1.604-4.2-1.212.836-1.618.25-2.162-1.43-1.325-3.963 1.977-5.7-.49-2.4-3.408 2.176-1.923 2.68-3.617.93-3.123-2.65.75-4.03.702-4.835-.163l-.817-.877 1.075-1.12c.59-.617 1.705-1.466 2.475-1.886 1.962-1.072 1.755-1.458-.937-1.747-3.714-.4-4.432-2.555-1.506-4.52l1.15-.77-1.253-.842c-2.54-1.705-1.925-3.702 1.255-4.08 2.898-.343 2.972-1.133.17-1.817-4.724-1.152-5.03-3.9-.5-4.485 2.845-.368 3-.51 1.798-1.556-.905-.78-1.04-1.257-1.212-4.278-.107-1.87-.458-4.416-.78-5.658s-.584-2.913-.584-3.714c0-2.846-6.164-7.428-7.37-5.478m74.313 1.038c-2.67 1.752-4.144 4.64-4.144 8.125 0 1.3-.346 3.367-.77 4.595l-.768 2.234L235 239l-.987 1.525c-.744 1.15-1.408 1.637-2.693 1.98-2.113.565-1.503 1.08 1.29 1.088 1.18.003 2.385.268 2.917.64l.906.634-1.867 1.666c-1.026.916-2.305 1.858-2.84 2.095-.954.42-.942.44.61.904 4.216 1.263 4.72 4.505.808 5.204l-1.746.313 1.854.292c4.077.643 4.587 5.057.584 5.057-1.295 0-1.64.61-.72 1.273 2.465 1.777 1.11 3.535-2.358 3.06-2.827-.387-4.84-.077-3.27.504.965.357 3.3 3.357 3.3 4.235 0 1.475-2.398 1.274-4.882-.41-2.194-1.486-2.228.06-.06 2.667 1.13 1.36 1.145 1.53.214 2.678-.854 1.055-1.77.75-3.96-1.323-1.64-1.552-2.24-.635-.952 1.45 1.914 3.096.833 4.45-2.018 2.527-3.008-2.028-3.576-1.058-2.127 3.636.314 1.02-1.506 1.308-3.047.483-1.174-.628-2.737 1.304-2.763 3.417-.01.88-.282 3.2-.602 5.154-.887 5.406-.14 11.446 1.414 11.446 1.25 0 3.366-1.347 6.203-3.947l3.9-3.543c1.034-.93 1.88-1.902 1.88-2.16s.923-1.48 2.052-2.7l3.15-3.44c.603-.66 1.55-2.1 2.105-3.2s1.373-2.33 1.82-2.735c1.248-1.128 4.638-8.4 5.12-10.98.152-.817.62-2.148 1.04-2.958s.856-2.52.968-3.8.446-2.957.744-3.727c.93-2.403 1.06-4.95 1.078-20.862.02-18.2.238-17.16-3.133-14.95m124.73 8.634c-2.273.912-1.03 2.373 3.21 3.772 2.136.704 4.206 1.528 4.6 1.83s.768.577.83.61c1.288.69-1.723 2.73-4.97 3.37-7.218 1.422-10.227 6.344-4.267 6.98 1.277.136 3.225.6 4.33 1.03s2.364.787 2.8.79 2.052.292 3.592.64c4.692 1.06 6.683.452 5.686-1.737-.432-.947-.773-1.08-3.828-1.495-5.02-.682-5.27-3.145-.493-4.854 5.165-1.848 6.052-2.323 6.84-3.66 1.253-2.124 1.064-3.094-.705-3.613l-3.575-1.064c-1.14-.343-2.63-.624-3.308-.624s-2.27-.422-3.54-.937c-2.715-1.103-5.9-1.563-7.205-1.04m-179.53 13.882c-1.14.187-1.364 1.52-.917 5.484.23 2.044.22 3.328-.033 3.58-.545.545-.5 1.974.098 2.562.378.378.383.662.02 1.244-.28.448-.497 2.646-.535 5.41-.065 4.668.155 6.032.653 4.048.174-.692.724-1.253 1.58-1.61.723-.302 1.434-.925 1.58-1.385s.48-.845.74-.856-.392-.468-1.448-1.018l-1.92-1 .793-1.284c.61-.985.792-1.98.787-4.28a141.02 141.02 0 0 1 .215-6.86c.235-4.08.14-4.32-1.61-4.034m36.073 1.227a4.62 4.62 0 0 0 .168 2.226c.23.602.417 2.703.417 4.67 0 2.116.163 3.574.4 3.574.22 0 .4.557.4 1.237s.36 1.694.8 2.254l.8 1.017v-2.26c0-1.243-.22-2.6-.486-3.038-.382-.61-.382-1.068 0-2.123.79-2.188.637-7.228-.245-8.026-1.102-.997-1.972-.816-2.254.47m-20.215 12.285c-.55.315-1.736.575-2.636.578-1.354.005-1.714.178-2.09 1.006-.25.55-.786 1-1.2 1s-1.25.54-1.883 1.2l-1.15 1.2h1.448c1.054 0 1.512-.2 1.68-.735.466-1.466 2.743-1.7 3.947-.407.583.628 1.31 1.142 1.61 1.142s1.566.542 2.808 1.205l2.258 1.205 1.205-1.305c.884-.956 1.157-1.583 1.02-2.344-.156-.877.065-1.18 1.42-1.94 2.165-1.217 2.24-1.2-6.05-2.206-.792-.097-1.834.077-2.4.4m12.2 2.984c.136.22.496.4.8.4s.664-.18.8-.4c.14-.228-.204-.4-.8-.4s-.94.172-.8.4m9.844.845c-.513.415-1.408.767-1.988.782-1.048.027-1.05.03-.156.46.495.24.9.65.9.91s.344.788.764 1.168a3.96 3.96 0 0 1 1.008 1.662c.348 1.387.896 1.2 1.198-.412.143-.76.518-1.88.834-2.5.516-.995.504-1.144-.115-1.467-.38-.198-.874-.587-1.1-.865-.326-.4-.608-.347-1.345.25m-5.774.553c-.627.458-.63.53-.05.755 1.732.664 3.252-.118 1.648-.85-.66-.3-1.095-.274-1.6.094m28.175 2.174c-.41.253-.488.93-.313 2.683.545 5.435.823 6.738 1.725 8.067.52.765.958 1.68.975 2.034.02.36.274.117.582-.556.707-1.547.355-3.786-.746-4.74-.734-.636-.854-1.176-.86-3.88-.007-3.214-.384-4.213-1.362-3.61M164.84 269.4c-.03 3.62.246 4.327 1.607 4.135 1.32-.187 1.624-2.532.38-2.927-.457-.146-.927-.738-1.058-1.335-.666-3.03-.903-3-.928.127m15.762-.6c-.43.697.208 1.292.83.774.308-.256.462-.624.34-.82-.292-.472-.866-.45-1.172.045m-137.2 5.84c-2.36 1.41-4.077 2.16-4.933 2.16-.418 0-1.217.36-1.776.8s-1.17.806-1.354.813c-3.575.134-4.018 7.168-.696 11.055 2.748 3.218 4.583 3.214 10.432-.022 1.735-.96 3.737-1.872 4.448-2.03 1.515-.333 2.753-2.183 1.98-2.957-.75-.75-2.117-.533-4.375.693-1.17.634-2.572 1.29-3.117 1.456s-1.45.642-2 1.056c-3.242 2.397-7.238-.442-5.625-3.996.52-1.144 1.35-1.69 5.916-3.9 5.31-2.56 5.31-2.56 5.31-3.955 0-2.335-1.543-2.77-4.2-1.184m116.42.94c-1.276 1.332-1.27 1.425.153 3.048l1.172 1.334.828-1.404c1.82-3.086.157-5.388-2.153-2.978m81.075 4.02c0 .77.082 1.085.183.7s.1-1.015 0-1.4-.183-.07-.183.7m-70.093 1.2c0 .747.107.853.48.48s.373-.587 0-.96-.48-.267-.48.48m64.97-.166c-.648.28-.175 2.535.62 2.962 1.16.62 2.066-.35 1.677-1.796-.31-1.15-1.24-1.623-2.298-1.166m-73.267 1.244c-.542 1.163-.452 1.464.375 1.257.358-.09.47-.504.33-1.228l-.2-1.093-.496 1.064m82.04.844c-.29.186-.33 1.005-.118 2.478.174 1.2.33 2.555.346 2.99.03.785.033.785.817 0 .756-.756.763-.888.164-3.19-.724-2.777-.65-2.637-1.21-2.278m-84.61 1.808c-1.257.472-1.53 1.486-1.244 4.632.247 2.72-.505 7.897-1.33 9.156-.557.85-.533.977.32 1.687 1.213 1.012 1.394.988 2.053-.27.306-.585 1.167-1.35 1.913-1.7 1.847-.87 1.966-2.208.374-4.21-.67-.844-1.22-1.86-1.22-2.255s-.197-.844-.438-.993c-.51-.314-.31-1.65.62-4.137.747-2.003.484-2.483-1.047-1.91m72.545 3.257c-.427.936-.426 1.2.001 1.466.552.347.892-.667.647-1.934-.094-.493-.267-.368-.648.468m-63.68 2.413c0 .33-.18.6-.4.6a.4.4 0 0 0-.4.4c0 .22.27.4.6.4.373 0 .6-.378.6-1 0-.55-.1-1-.2-1s-.2.27-.2.6m7.678.306c-.287.345-.257.708.1 1.195.704.962 1.023.875 1.023-.277 0-1.163-.547-1.61-1.122-.918m-9.963 1.858c-.38.608-.366.808.065.973.685.263 1.02-.067 1.02-1.004 0-.95-.48-.935-1.085.03m-113.16 1.218c-.855.65-2.005 1.564-2.555 2.03-1.708 1.45-6.548 4.78-7.292 5.016-.496.158-.708.636-.708 1.598 0 2.03 1.827 1.946 4.258-.195 2.324-2.045 3.898-2.618 4.777-1.74.754.754.545 3.014-.373 4.058-.315.357-.692 1.21-.837 1.896s-.626 1.634-1.07 2.11c-1.884 2.023.23 6.053 2.512 4.785 1.192-.663 3.9-2.667 7.342-5.413 1.425-1.14 2.923-2.18 3.33-2.308 1.217-.386 1.825-2.173 1.037-3.045s-2.28-.398-3.58 1.132c-1.224 1.44-4.18 1.75-4.244.447-.082-1.7.107-2.518 1.074-4.642 2.552-5.605.46-8.87-3.673-5.73m292.4-.105c-1.54.3-1.444 1.646.192 2.694 3.156 2.02 4.757 4.632 3.313 5.405-1.17.625-4.38.516-6.293-.215-1.576-.602-1.72-.596-2.45.1-.426.406-1.066.92-1.422 1.14-1.287.794-1.023 2.653.518 3.653.77.5 2.3 1.61 3.4 2.47 6.16 4.807 8.66 6.106 9.945 5.166.97-.71.518-1.575-1.423-2.72-6.853-4.04-6.428-5.823 1.35-5.654 5.68.123 6.395-.064 6.916-1.82.318-1.068-.962-2.427-4.03-4.28-1.077-.65-3.038-2.005-4.358-3.01-2.523-1.92-4.494-3.245-4.686-3.154-.063.03-.5.13-.973.223m-119.53 1.165c-.77.563-.77.576.005 1.337s.793.756 1.5-.188c.927-1.257-.183-2.11-1.495-1.15m19.762.5c-.728.6-1.178.685-1.91.407-1.044-.398-2.062.14-2.062 1.09 0 1.457-3.277 2.157-4.165.9-.335-.48-1.155-1.1-1.822-1.38l-1.213-.5v1.694c0 1.46.167 1.793 1.2 2.403.66.4 1.2.877 1.2 1.082 0 .52 2.713 2.137 4.446 2.648 1.665.5 2.42.194 3.86-1.517.543-.646 1.53-1.232 2.325-1.38 2.4-.45 2.482-2.953.17-5.168-1.07-1.026-1.078-1.027-2.027-.26m-75.173 2.06c0 .747.107.853.48.48s.373-.587 0-.96-.48-.267-.48.48m-6.48 1.413c-.117.118-.096.787.047 1.487.297 1.45 2.42 2.28 3.255 1.274.98-1.18-2.213-3.85-3.302-2.76M180.862 308c-.023 1.725.06 2.043.392 1.475.286-.49.295-1.2.03-2.2-.39-1.47-.392-1.466-.42.725m33.958 3.42c.01 1.034.065 1.09.442.44.307-.53.304-.863-.013-1.18s-.438-.122-.43.74m-145.17.064c-.307.122-1.092.83-1.744 1.572s-1.616 1.46-2.142 1.59-.955.373-.955.535-1.53 1.526-3.4 3.03c-3.565 2.867-4.08 3.86-2.843 5.488 1.05 1.384 3.476.315 6.583-2.902.363-.376 1.968-1.8 3.567-3.166 4.04-3.45 4.476-4.173 3.28-5.447-.932-.992-1.318-1.107-2.345-.7m142.3 1.198c-1.76.27-1.805 2.303-.065 2.837 1.246.382 1.342.343 1.58-.656.14-.585.413-1.267.608-1.516.282-.36-.655-1.192-.998-.887-.037.033-.543.133-1.125.222m-7.3 1.95c-.167.434.17.568 1.436.568 1.86 0 1.867-.097.052-.71-1.016-.343-1.313-.315-1.488.14m-7.843.24c0 .553 2.364 1.425 3.352 1.236 1.02-.195 2.262-1.256 1.597-1.364-1.19-.194-4.95-.097-4.95.128m131.62.488c-.22.584-.69 1.17-1.04 1.305-.717.276-.492 1.9.408 2.936.287.33.65 1.023.808 1.54s.63 1.282 1.047 1.7.76 1.097.76 1.507.338 1.175.75 1.7 1.088 1.6 1.5 2.387c2.368 4.526 2.277 4.41 3.333 4.286.92-.108 1.007-.272.916-1.72-.255-4.053.09-5.118 2.07-6.417 1.075-.704 1.797-.775 3.84-.38 3.523.68 3.952-2.55.5-3.77-.83-.293-1.78-.76-2.11-1.036s-1.05-.638-1.6-.803-1.45-.605-2-.978-1.63-.918-2.4-1.213-1.708-.797-2.084-1.117c-1.383-1.177-4.242-1.133-4.7.072m-250.48 5.805c-.562.8-1.237 2.097-1.5 2.904s-.738 1.684-1.056 1.95-.58.684-.582.932-.54 1.26-1.198 2.25-1.2 2.07-1.207 2.4-.363 1.05-.793 1.6c-1.915 2.45 1.567 7.055 3.88 5.133.74-.614 4.697-2.747 10.02-5.398 3.376-1.683 3.7-1.944 3.7-2.99 0-1.516-1.8-1.583-3.914-.146-.81.55-1.7 1-1.98 1s-.507.19-.507.42c0 .395-1.488 1.145-3.478 1.752-2.787.85-1.938-3.867 1.546-8.578 1.062-1.437.72-3.16-.8-4.03-1.095-.627-1.126-.615-2.133.8m257.56-.67c1.045.513 1.2 2.13.34 3.32-1.333 1.823-4.495-1.057-3.517-3.203.508-1.115 1.106-1.137 3.178-.118m-21.5 9.3c-1 .526-2.323 1.418-2.962 1.982s-1.36 1.025-1.6 1.027c-.415.002-1.66 1.777-2.31 3.293-.2.47-.01 1 .587 1.63l7.976 8.58c2.36 2.653 2.918 2.6 6.188-.587 5.14-5.01 5.803-8.744 2.282-12.858-3.013-3.52-7.028-4.732-10.16-3.067m5.6 4.84c3.444 3.285 3.677 6.458.6 8.183l-1.2.673-1.9-2.015c-1.045-1.11-1.9-2.164-1.9-2.345s-.266-.33-.592-.33c-.61 0-2.208-2.715-2.208-3.75 0-.952 2.346-2.65 3.66-2.65.9 0 1.765.54 3.54 2.233m-225.7 1.33c-.605.64-1.1 1.33-1.1 1.53s-.44.78-.977 1.285-1.267 1.526-1.62 2.27-.813 1.35-1.023 1.35-.38.245-.38.545-.423.975-.94 1.5c-2.482 2.518-2.493 4.273-.036 6.042 1.002.722 2.922 2.168 4.265 3.213s2.64 1.897 2.878 1.894c1.656-.023 1.575-2.445-.117-3.49-2.362-1.46-3.25-2.597-3.25-4.164 0-2.432 2.198-3.13 4.296-1.365 3.022 2.543 4.692 1.29 1.936-1.454-4.345-4.324-1.268-7.262 3.507-3.35 2.25 1.845 3.86 1.95 3.86.256 0-.827-.24-1.25-.81-1.43-.446-.142-1.595-.936-2.553-1.766s-2.394-1.9-3.19-2.402-1.447-1.06-1.447-1.262c0-.86-2.248-.32-3.3.797m200.15 8.09c-1.544 1.404-1.807 3.293-.745 5.36.335.652.815 2.176 1.067 3.386 1.74 8.356 5.205 12.938 5.227 6.914.005-1.32.283-2.002 1.285-3.143 1.394-1.588 1.047-1.55 6.743-.71 2.546.375 3.143-2.48.728-3.48-.643-.266-1.3-.692-1.46-.946-.256-.408-3.713-3.345-5.217-4.433-.304-.22-1.03-.865-1.613-1.434-2.87-2.797-4.226-3.138-6.016-1.51m-181.7 2.615c-.356.093-1.124 1.046-1.708 2.12s-1.193 2.01-1.353 2.08-.922 1.36-1.692 2.86-1.683 2.885-2.028 3.075c-.99.546-1.788 3.403-1.267 4.545.726 1.595 2.674 1.604 3.43.015.98-2.055 3.136-3.497 4.38-2.93 1.074.49 1.638 2.13 1.086 3.16-.326.61-.52 2.55-.44 4.404.13 3.023 3.803 2.565 3.885-.485.073-2.7 1.055-4.184 3.553-5.367 4.996-2.366 4.717-6.87-.62-10.023-.65-.384-1.18-.84-1.18-1.01s-.245-.314-.544-.314-1.18-.432-1.96-.96c-1.597-1.084-2.6-1.415-3.544-1.17m187.82 3.695c1.395 1.54-.007 4.437-1.648 3.402-1.27-.802-2.218-2.427-1.935-3.32.355-1.12 2.598-1.172 3.583-.083m-182.8 1.3c1.383.63 2.04 2.94 1.202 4.22-1.335 2.038-5.382.737-5.382-1.73 0-2.405 1.892-3.533 4.18-2.5m159 2.33c-6.842 2.88-7.185 4.072-3.116 10.806.2.33.633 1.23.964 2 2.694 6.272 3.093 6.476 8.067 4.13 4.9-2.3 6.915-4.204 6.915-6.497 0-.917-2.227-3.634-2.98-3.634-.955 0-1.728-1.418-1.998-3.668-.53-4.4-2.75-5.287-7.853-3.138m3.54 2.63c1.265.886 1.18 2.69-.176 3.757-3.005 2.363-5.64.517-3.943-2.764.885-1.712 2.527-2.108 4.12-.993M132 358.492c-3.483 1.388-2.214 9 1.515 9.095.858.022 2.608 3.062 2.307 4.01-.24.76-1.624 1.604-2.626 1.604-.606 0-3.52-2.796-3.785-3.63-.178-.562-.614-.77-1.617-.77-3.28 0-.816 4.438 3.572 6.43 7.695 3.494 13.325-4.85 6.052-8.97-4.397-2.5-3.718-7.097.708-4.808.696.36 1.6 1.08 2.01 1.6.67.85 2.214 1.004 3.04.302.222-.2-.802-2.557-1.107-2.557-.14 0-.705-.417-1.255-.928-1.886-1.748-6.195-2.423-8.813-1.38m126.3 3.364c-.616 1.176.065 4.085 1.712 7.313.45.88.816 1.86.816 2.178 0 .485.814 2.346 2.384 5.453.54 1.068 2.926.765 3.506-.444.445-.928.348-1.356-.867-3.853-.752-1.545-1.577-3.595-1.834-4.556s-.877-2.647-1.377-3.747-1.018-2.315-1.15-2.7c-.393-1.157-2.522-.92-3.19.356m24.31.937c2.744 1.043 1.368 5.552-1.707 5.594-2.732.038-3.417-2.583-1.243-4.756 1.366-1.366 1.478-1.398 2.95-.838m-130.33 1.8c-.41.31-1.102 1.79-1.534 3.287l-1.135 3.92c-2.252 7.738-2.203 9.734.233 9.473 1.595-.17 1.745-.38 2.17-2.984.2-1.24.544-2.585.762-2.99.656-1.227 2.452-7.973 2.452-9.212 0-1.642-1.65-2.478-2.948-1.494m89.148 1.808c-.66.168-2 .328-3 .357s-2.768.5-3.95 1.052l-2.15 1 .273 2.058c.15 1.13.538 2.57.863 3.197s.772 2.6.996 4.388c.563 4.49 1.96 7.26 3.48 6.896 1.526-.366 1.49-.28 1.49-3.72 0-3.423.38-4.228 2.186-4.625 1.668-.366 2.735-1.654 1.987-2.398-.442-.44-.938-.484-2.173-.197-2.82.657-3.8.096-3.8-2.175 0-1.592.995-2.585 2.9-2.894 2.075-.337 3.84-1.85 3.14-2.692-.295-.356-.65-.626-.788-.6s-.79.185-1.45.353m-78.12.88c-.73.73-.58 2.234.25 2.498 2.322.736 3.045 3.045 1.916 6.114-1.872 5.1-1.63 9.955.47 9.46 1.585-.373 1.717-.597 2.08-3.52.18-1.464.528-2.9.77-3.193s.635-1.6.872-2.885c.463-2.525 1.25-3.755 2.405-3.755.396 0 1.16-.2 1.7-.447 1.52-.692.71-2.75-1.083-2.76-1.3-.006-5.616-1.216-6.114-1.714-.458-.458-2.75-.318-3.267.2m18.744 3.29c-.37.446-.337.838.15 1.78.344.665.625 1.466.625 1.78s.26.787.577 1.05.948 1.59 1.4 2.95c.747 2.247.855 3.346.726 7.386-.056 1.777.86 2.644 2.427 2.3 1.31-.288 1.387-.473 1.9-4.61.265-2.14 1.987-5.822 3.2-6.82.32-.265.58-.7.58-.963s.42-.875.93-1.355c1.077-1.012 1.067-3.504-.012-3.1-.32.123-.798.224-1.06.224s-.798.598-1.19 1.328c-1.8 3.323-4.63 3.357-6.084.07-1.09-2.465-3.017-3.404-4.16-2.028m32.898-.11c-5.86 1.314-7.645 10.482-3.008 15.446 3.25 3.478 9.684 2.747 12.286-1.397 1.493-2.378 1.802-8.563.5-10-.385-.425-.7-.975-.7-1.22 0-2.03-5.29-3.676-9.078-2.827m5.178 3.848c.898.788 1.033 8.28.17 9.46-2.785 3.808-7.027-.053-6.54-5.955.4-4.84 3.132-6.345 6.37-3.506" fill="#222320" style="fill: inherit;"/><path d="M185.76 50.8c-.684.152-1.67.574-2.19.938s-1.327.662-1.794.662c-.976 0-2.173 1.16-2.173 2.108 0 .355-.18.756-.4.892-1.215.75-.228 1.1 2.418.853 3.11-.29 3.514-.156 5.767 1.908 1.03.942 1.704 1.297 2 1.05 1-.83 4.435-1.165 12.415-1.212l9.2-.07 3.843-.08c1.873-.035 3.3-.264 3.687-.593.357-.296 1.543-.528 2.657-.52 1.494.01 2.013-.134 2.013-.562 0-.4.457-.575 1.5-.572 2.934.01 3.605.55 4.23 3.395.097.44.197.06.223-.846.053-1.906-.935-3.417-2.89-4.418a10.54 10.54 0 0 1-2.313-1.734l-1.05-1.087-17.95-.195c-9.874-.108-18.512-.072-19.196.08m36.27 8.96c-.87 2.58-.914 3.15-.67 8.8l.63 18.84c.54 18.754.777 21.886 1.514 19.928 1.412-3.752 1.608-5.388 1.863-15.528l.45-12c.103-.88.377-5.118.61-9.418.465-8.602.336-9.5-1.537-10.597-.64-.378-1.336-1.16-1.546-1.736-.356-.982-.44-.872-1.31 1.71m6.267 3.027c-.337.762-.548 1.662-.47 2 .335 1.416 1.326 4.182 1.367 3.813.024-.22.197-1.192.384-2.16.23-1.188.176-2.293-.164-3.4l-.503-1.64-.615 1.387M184.09 62.5c-.962 1.17-1.42 5.475-.938 8.836.257 1.795.633 5.244.836 7.664l.655 7.173.285 2.772.532-1.972c.293-1.085.706-3.863.92-6.173s.693-6.1 1.067-8.4c.903-5.567.57-9.283-.888-9.948-1.283-.584-1.96-.57-2.468.048m-6.584.628c-.127.487-.23 7.137-.23 14.778l.003 13.894.51-5.6c1.197-13.185 1.015-28.035-.283-23.072m33-.442c-.362.13-.385.387-.086.946.53.992 1.183.987 1.183-.008 0-.88-.37-1.198-1.097-.938m5.54 2.082c-1.035.78-.938 2.723.183 3.653.316.262.586.77.6 1.128s.274-.143.577-1.114c.93-2.988.233-4.87-1.36-3.667m-9.42 1.115c-.71 1.855 5.675 3.377 7.18 1.712.992-1.096-.476-1.768-3.1-1.42-1.454.193-2.23.102-2.907-.34-.83-.544-.947-.54-1.173.05m22.24 35.466c-.056 10.192.006 11.49.532 11.054.37-.307.508-.846.363-1.424-.128-.51-.368-5.485-.532-11.054l-.3-10.125-.064 11.55m-50.064 8.573c0 .96-.308 1.962-.794 2.58-.79 1.003-.79 1-.004 1.215 1.023.268 1.716 2.127 1.407 3.775-.4 2.127-2.21 2.628-5.21 1.44-3.39-1.342-24.005-1.918-48.81-1.363l-11.212.25-1.988 1.142c-5.343 3.07-5.715 4.276-5.04 16.337.263 4.675.736 10.3 1.05 12.5s.58 4.67.586 5.49.474 2.528 1.038 3.8c1.27 2.866 1.983 2.18 1.84-1.768-.076-2.09.03-2.543.68-2.9.982-.526 1.74 1.075 1.61 3.4-.118 2.103.913 3.973 2.496 4.525 2.134.744 25.538.483 54.17-.604 7.99-.303 9.253.086 7.206 2.222-1.26 1.314-1.262 1.49-.057 3.262.53.782 1.026 1.95 1.1 2.593l.133 1.17.9-1.447c1.044-1.68 1.163-3.883.3-5.553-.746-1.443-.154-1.927 2.046-1.67 2.127.25 2.647 1.787 2.44 7.216-1.492 38.925-1.46 39.232 3.64 35.857 1.887-1.248 3.285-1.382 16.875-1.614 5.83-.1 11.32-.323 12.2-.497 1.398-.276 1.693-.2 2.335.605 3.17 3.968 6.155.114 4.678-6.042-.5-2.126-.367-6.802.332-10.854l.275-1.6 2.08 4.155.65-3.277c1.29-6.502.693-9.827-1.682-9.352-1.06.212-1.232.085-1.908-1.415-1.508-3.344-.363-12.718 1.55-12.705.666.005.75.094.334.358-.67.424-.436 4.082.32 4.993 1.276 1.538 4.837-2.1 4.27-4.363-.52-2.068 4.93-2.278 40.77-1.574 22.203.436 23.388-.033 23.395-9.253.002-3.7.13-3.963 1.448-3.1 1.168.765 1.176 1.022.104 3.237-.726 1.5-.78 1.914-.36 2.826.27.59.584 1.97.7 3.07.255 2.438.512 2.864.512.848 0-1.087.28-1.745 1.04-2.45l1.042-.966.19-10.315c.393-21.496.407-21.38-2.88-24.62l-1.845-1.82-4.98-.287c-2.74-.158-16.02-.21-29.516-.118l-24.536.17-2.256 1.18c-3.316 1.732-4.364 1.1-4.687-2.834l-.23-2.787-.07 3.42c-.1 4.847.427 5.13 6.53 3.497 3.388-.907 7.338-1.055 9.518-.357 1.664.534 3.234.85 5.582 1.12 1.512.176 1.9.374 1.9.97 0 .412.27.75.6.75s.6.22.6.487.452.876 1.005 1.35l1.005.864-1.105.75c-.608.412-1.444.842-1.86.956-.58.16-.284.438 1.278 1.207l2.032 1-1.207 1.793c-1.02 1.515-1.196 2.137-1.13 3.994.1 3.123.086 3.2-.97 3.2-.56 0-1.6.62-2.5 1.503-1.435 1.394-2.744 2.438-4.1 3.27-.903.554-.215 2.19 1.855 4.41l1.9 2.04 5.4.61c2.97.336 6.57.867 8 1.18 8.38 1.83 20.788 1.885 24.377.108l1.906-.943.4 1.46c.625 2.342-1.22 3.74-4.375 3.315-.934-.127-8.268-.033-16.298.207l-29.156.455c-18.74.024-18.5-.064-18.378 7.063.07 3.78-.547 9.686-1.185 11.327-.215.554-.412 2.416-.438 4.138s-.155 3.562-.287 4.088l-.24.958-1.136-.896c-.748-.6-1.143-1.278-1.158-2.02-.012-.618-.175-1.03-.362-.913s-.577-.234-.867-.777c-.418-.78-.87-1-2.16-1.047-.897-.033-1.812-.103-2.032-.154a8.34 8.34 0 0 0-.89-.139c-.27-.025-.77-.586-1.1-1.246-.724-1.4-5.956-1.813-7.565-.596a2.19 2.19 0 0 1-1.686.347c-.608-.152-1.295.063-2.022.635-1.38 1.085-4.6.815-6.035-.505l-.908-.836-.692.963c-.38.53-.893 1.5-1.138 2.178-.4 1.087-.478.795-.75-2.786-.167-2.2-.56-4.5-.87-5.112-.385-.755-.567-2.484-.567-5.38 0-8.03-1.1-9.015-9.912-8.86-11.666.205-44.176-.908-45.147-1.544-.5-.327-.908-.462-.908-.3s-.227.107-.504-.123c-1.236-1.026-5.414-1.046-5.607-.028-.177.93-.18.93-.235.048-.078-1.302-1.775-1.23-2.38.1-1.18 2.587-4.333.938-3.776-1.974.16-.844.315-.926 1.145-.6.527.2.958.25.958.112s.358.072.796.47c1.308 1.183 21.262.2 22.72-1.12.524-.474 2.055-.808 5.116-1.115 2.402-.24 4.62-.516 4.928-.6.982-.3-1.133-2.144-2.53-2.204-.98-.043-.864-.113.57-.345 4.392-.71 5.215-1.516 2.7-2.64-.935-.42-2.33-1.314-3.1-1.99s-2.433-1.64-3.696-2.145-2.215-1.045-2.117-1.204-.61-1.06-1.57-2.005l-1.75-1.717.967-.895c.58-.538.972-1.357.98-2.05.04-3.14 3.397-4.222 12.806-4.12 2.545.027 5.45-.175 6.537-.454l1.958-.503-1.658-.98c-1.73-1.022-2.014-1.475-1.133-1.813.29-.1.74-.92 1.003-1.798.863-2.88 4.19-3.68 9.538-2.286 6.657 1.734 7.86.44 6.328-6.8-.326-1.54-.593-3.194-.593-3.676s-.18-.988-.4-1.124c-.24-.15-.4.378-.4 1.322m74.6 5.678c-1.12.285-1.084.31.524.353 1.057.03 1.628-.108 1.476-.353-.27-.44-.275-.44-2 0m-127.07.454c-.335.213.018.336.974.34.825.003 1.5-.063 1.5-.147 0-.347-1.987-.5-2.474-.193m169.52 4.446c1.306 1.49 1.902 3.03 1.928 4.976.026 2-.782 2.836-1.19 1.214-.134-.532-1.054-1.645-2.044-2.473s-1.943-1.89-2.116-2.357c-.755-2.038 1.903-3.095 3.42-1.36m-183.05 4.303l-1.245 1.57-.115 8.62c-.064 4.74-.205 8.708-.315 8.817-.262.263-.896-9.708-.82-12.9.102-4.335.102-4.66-.001-6.5-.095-1.694-.02-1.84 1.29-2.495 2.254-1.125 3 .645 1.206 2.898m43.702.286c-.715.09-1.885.09-2.6 0s-.13-.16 1.3-.16 2.015.073 1.3.16m-38.53 4.01c-.017.165-.273.93-.57 1.7l-.54 1.4-.03-1.7c-.022-1.258.126-1.7.57-1.7.33 0 .586.135.57.3m171.1 3.395c-.096.498-.178.185-.182-.695s.074-1.287.174-.905.104 1.103.008 1.6m.09 15.205c-.024 1.09-.084 1.17-.372.5-.475-1.105-.475-1.8 0-1.8.22 0 .387.585.372 1.3m-110.3 35.5l.018 5.8.57-2.2c.606-2.334.5-6.647-.206-8.4-.296-.737-.397.527-.383 4.8m40.412 6.766c.057 3.48-.487 4.303-1.616 2.447l-.787-1.294.96-1.415c.528-.78.96-1.78.96-2.226s.098-.714.217-.594.24 1.507.265 3.082m-40.482 7.104v5.87l.997-.936c1.177-1.106 1.21-6.573.06-9.33-.958-2.292-1.057-1.88-1.057 4.396m9.3 11.206c.385.1 1.015.1 1.4 0s.07-.183-.7-.183-1.085.082-.7.183m13.2 20.01c-.275.1-.5.435-.5.746 0 .627.718.734 1.52.226.653-.414-.23-1.256-1.02-.972m1.9.45c0 1.775 2.877 2.805 5.667 2.028l1.733-.483-1.29-.35c-.7-.192-1.478-.7-1.707-1.128-.348-.65-.59-.712-1.474-.376-.72.273-1.19.27-1.473-.013-.66-.66-1.455-.482-1.455.323m-23.35 19.492c.188 1.83.093 2.718-.384 3.6-.35.643-.64.964-.65.713s-.33-.577-.716-.724.02.435.9 1.293c1.932 1.884 2.187 1.64 2.19-2.112.003-2.133-.186-3.086-.794-4l-.797-1.2.25 2.43m-1.437-1.03c-.063.1-.156.56-.205 1s-.226 1.25-.392 1.8c-.28.928-.253.954.37.356.455-.436.62-1.082.507-2-.09-.746-.218-1.266-.28-1.156m45.187 55.4c-.55.288-1.495.75-2.1 1.03s-1.1.74-1.1 1.025-.335.697-.745.917c-.765.41-1.926 2.692-1.557 3.06.113.114.32-.252.462-.812s.43-1.02.646-1.02 1.067-.602 1.893-1.338c2.502-2.23 3.957-2.51 4.5-.866.243.737.748 1.58 1.12 1.872.602.47.62.457.167-.124-.282-.36-.736-1.428-1.01-2.37-.56-1.934-.86-2.115-2.278-1.374m-35.7 3.412c.495.2.9.53.9.736s.642.752 1.426 1.214l1.426.842-.76 1.098c-.418.604-1.074 1.908-1.46 2.898-.72 1.85-1.692 3.2-2.305 3.2-.694 0-4.525-2.904-4.414-3.346.063-.25.468-1.297.9-2.328s.782-2.29.777-2.8-.517.514-1.137 2.274l-1.128 3.2 1.57 1.8c2.724 3.123 6.304 2.42 6.304-1.24 0-.5.464-1.682 1.03-2.65 1.027-1.753.703-3.712-.613-3.712-.2 0-.478-.36-.618-.8-.186-.588-.592-.793-1.527-.775-1.163.024-1.196.057-.373.387m30.14 3.714c-.166 2.946 4.51 5.918 6.046 3.842.475-.642 1.065-1.168 1.312-1.168s.797-.283 1.225-.63c.733-.594.7-.616-.605-.394-.76.13-1.76.593-2.226 1.03-1.394 1.31-4.613.004-5.308-2.155-.235-.728-.42-.947-.444-.525m5.906 7.012c-.52.4-1.847.965-2.947 1.257a46.3 46.3 0 0 0-3.915 1.268c-1.053.405-2.33.737-2.838.737s-1.475.275-2.148.61c-2.345 1.17-6.1.584-6.1-.952 0-.42-.315-1.008-.7-1.3-.633-.497-.648-.483-.155.146.46.587.46.722 0 .865-1.714.532-2.31.512-2.538-.087-.202-.524-.405-.438-1.14.484-.78.978-1.244 1.15-3.64 1.342l-2.745.22.27-1.078c.41-1.636.073-1.8-2.648-1.207-4.16.893-6.706.692-6.706-.527 0-.467-.29-.55-1.25-.357-.687.138-1.707.25-2.267.25s-.896.12-.75.268-.015.58-.36.96c-.528.584-.62 1.892-.572 8.233.092 12.618 1.14 17.803 3.214 15.924.718-.65.805-.62 1.817.58 1.16 1.38 2.917 2.435 4.047 2.433.492-.002.296-.26-.62-.818-1.167-.712-1.59-2.464-.728-3.023.037-.024 2.947.106 6.467.3 4.11.215 9.558.17 15.222-.13 9.403-.495 10.003-.44 10.548.972.75 1.943.375 1.996-14.538 2.083-9.423.054-13.986.22-14.285.52-.64.64 10.597.797 26.943.376 2.485-.064 2.78-.168 3.878-1.37.653-.715 1.37-1.3 1.59-1.3.896 0 1.31-3.462 1.513-12.6.237-10.778.08-11.8-1.82-11.8-1.385 0-2.042-1.086-.772-1.275.46-.07 1.036-.485 1.278-.925s.595-.912.784-1.05.164-.36-.053-.495-.822.083-1.343.483m-4.626 4.23c.144.67-2.172 1.197-2.555.582-.24-.388-.08-.627.546-.813 1.12-.334 1.907-.243 2.01.23" fill="#d9c930"/><path d="M385.5 127.97c.495.476.9 1.248.9 1.716s.112.74.248.603c.484-.484-.27-2.27-1.153-2.723l-.895-.46.9.865m1.746 3.1c-.025.257-.162.797-.305 1.2-.2.57-.147.63.238.275.273-.25.4-.79.305-1.2s-.212-.532-.238-.275m7.813 33.933c.526 2.334.95 3.3.702 1.6-.13-.88-.4-1.87-.603-2.2-.247-.402-.28-.203-.1.6m2.623 3.782l-.56 6.09c-.42 3.772-.396 4.648.193 7.02.555 2.234.7 5.366.82 17.908.08 8.36.285 15.605.453 16.1.5 1.44 1.413 1.113 1.413-.5 0-.907-.2-1.4-.54-1.4-.682 0-1.057-5.893-1.06-16.64-.002-9.123.286-12.56 1.055-12.56 1.066 0 .735-6.126-.357-6.605-.852-.374-.91-.68-1.118-5.795-.12-2.97-.255-4.598-.3-3.618m-1.18 3.018c.004.88.086 1.193.182.695s.092-1.217-.008-1.6-.18.025-.174.905m-231.88 37.76c-.084.136.866.298 2.112.36s2.854.3 3.575.53l1.312.418-1.467 1.166c-.806.64-1.86 1.165-2.34 1.165s-1.298.45-1.815 1-1.313 1.014-1.77 1.032-.607.12-.333.232 1.12-.006 1.884-.258c4.037-1.332 11.374 6.382 11.98 12.594.484 4.964.755 5.53 3.34 6.968 1.265.704 2.865 1.674 3.556 2.156s1.797 1.172 2.46 1.534c.772.422 1.3 1.095 1.47 1.877.225 1.025.58 1.323 2.24 1.874 1.085.36 1.973.807 1.973.992s.54.068 1.2-.26c1.25-.623 1.702-1.618.53-1.17-.368.14-1.614.06-2.77-.18l-2.1-.436.667-1.16c.366-.638 1.07-1.213 1.564-1.278 1.093-.142-2.93-3.555-5.414-4.593-2.606-1.09-4.85-4.425-4.87-7.236-.023-3.417-3.395-8.713-6.902-10.84-.82-.498-1.85-1.407-2.286-2.02l-.794-1.115.912-.857c.502-.47 1.396-.857 1.987-.857s1.074-.2 1.074-.467-.105-.362-.233-.234-.893-.052-1.7-.4c-1.456-.628-8.72-1.06-9.043-.54m71.376.08l-2.9.448c-.385.045-.7.3-.7.563s-.225.57-.5.678.155.103.955-.012c1.424-.204 3.145.81 3.145 1.85 0 .576-2.017 2.83-2.536 2.835-.255.002-1.24.62-2.188 1.375s-1.85 1.427-2 1.496c-.9.413-2.87 5.54-3.673 9.6-.45 2.272-1.642 4.315-2.532 4.335-.26.006-1.537.816-2.84 1.8s-2.602 1.79-2.886 1.79-.717.375-.962.834-1.017 1.076-1.714 1.37c-1.442.61-2.96 2.175-2.164 2.227.273.018-.02.26-.65.54-1.138.503-1.13.508 1 .764 4.216.507 4.525.43 5.72-1.435.8-1.232 2.36-2.526 5.695-4.7 5.5-3.584 4.9-2.7 5.594-8.092.782-6 .93-6.234 6.502-10.667 2.287-1.82 2.775-2.04 4.5-2.04 1.737 0 1.935-.09 1.94-.9.003-.495.11-1.35.24-1.9.206-.88.134-.844-.6.3-.94 1.467-1.174 1.54-2.27.713-.427-.323-1.316-.595-1.976-.603-.887-.012-1.323-.282-1.673-1.036-.617-1.33-.067-1.56 3.742-1.568 1.58-.003 2.65-.13 2.38-.282-.896-.504-4.418-.653-6.648-.283m5.08 10.365c-4.563 1.734-6.582 4.517-6.864 9.46l-.18 3.135.396-3.182c.6-4.83 3.084-7.887 7.368-9.07.77-.212 1.398-.557 1.398-.767s-.045-.364-.1-.343l-2.02.768m-75.48-.257c0 .088 1.215.886 2.7 1.774 2.846 1.7 3.742 2.71 4.147 4.677l.248 1.2.052-1.24c.064-1.508-1.3-3.66-2.95-4.617-1.435-.838-4.197-2.018-4.197-1.793m231.37 2.25a56.04 56.04 0 0 1 .226 4.567c.001 1.3.113 2.257.247 2.122.437-.437.234-7.423-.237-8.167-.364-.573-.413-.27-.236 1.478m-.747 6.655c-.25 3.738-.2 4.334.402 4.9.638.6.662.588.33-.155-.196-.44-.3-2.645-.23-4.9.166-5.36-.14-5.264-.504.155m-223.34-.055c.004.44.145 1.34.313 2 .274 1.078.306 1.098.313.2.004-.55-.137-1.45-.313-2-.25-.784-.32-.827-.313-.2m43.533 11.2c2.316 1.198 1.34 2.443-1.38 1.758-1.784-.45-1.795-.463-1.174-1.41.736-1.124.986-1.158 2.555-.347m-13.607 28.506c-.007.724-.597 2.434-1.31 3.8-1.596 3.054-1.688 5.84-.335 10.2.897 2.887.9 2.922.168 5.2-.96 2.993-.952 7.67.016 10.09.504 1.26.677 2.564.583 4.39-.108 2.1-.015 2.62.487 2.72s.587-.177.446-1.384c-.188-1.605-.01-1.586 1.88.2.827.782.837.66.395-4.928-.48-6.065-.474-6.77.082-8.457.736-2.236.56-6.5-.406-9.914-.974-3.427-.923-5.68.176-7.807.334-.645.583-1.857.554-2.693l-.052-1.52-.513 2.8-.452-1.2c-.866-2.3-1.702-3.024-1.717-1.484m178.57 11.823c.474.347.623.74.417 1.1-.253.445-.212.46.202.078.572-.53-.07-1.717-.93-1.717-.236 0-.096.243.3.54m-170.9 5.86c0 .77.082 1.085.183.7s.1-1.015 0-1.4-.183-.07-.183.7m-1.173 7.6c0 1.2.075 1.705.167 1.1a8.9 8.9 0 0 0 0-2.2c-.092-.605-.167-.1-.167 1.1" fill="#4c8499"/></svg>