<svg id="svg" version="1.1" xmlns="http://www.w3.org/2000/svg" xmlns:xlink="http://www.w3.org/1999/xlink" width="400" height="400" viewBox="0, 0, 400,400"><g id="svgg"><path id="path0" d="M190.520 14.374 C 186.287 14.701,186.585 13.939,186.696 24.139 C 186.819 35.353,186.194 34.546,194.520 34.248 C 200.985 34.017,201.554 33.828,201.286 32.008 C 201.090 30.667,201.226 30.699,196.125 30.796 C 192.600 30.863,191.366 30.027,191.811 27.874 C 192.148 26.248,192.989 25.601,194.776 25.596 C 198.123 25.585,199.200 25.184,199.200 23.948 C 199.200 23.138,198.994 22.787,198.500 22.756 C 198.115 22.732,196.771 22.675,195.514 22.630 C 189.327 22.410,190.215 17.627,196.505 17.291 C 199.665 17.122,201.146 16.443,201.191 15.143 C 201.220 14.293,196.228 13.934,190.520 14.374 M222.400 18.049 C 222.130 19.672,221.660 21.607,221.355 22.349 C 221.050 23.091,220.800 24.696,220.800 25.916 C 220.800 27.136,220.601 29.277,220.358 30.673 C 219.315 36.662,223.578 37.104,224.785 31.132 C 225.836 25.933,230.209 27.083,230.366 32.600 C 230.456 35.790,231.681 37.200,234.362 37.200 C 235.782 37.200,236.002 35.952,235.168 32.639 C 234.541 30.149,235.216 28.040,237.218 26.231 C 243.053 20.960,238.490 16.910,224.945 15.336 L 222.890 15.097 222.400 18.049 M168.874 16.674 C 167.812 17.098,167.568 18.765,168.232 21.050 C 169.197 24.370,167.459 26.385,164.165 25.767 C 162.392 25.434,161.917 24.775,161.561 22.153 C 161.135 19.010,159.371 17.813,157.200 19.194 C 156.379 19.716,156.495 25.051,157.364 26.731 C 157.708 27.396,158.186 29.701,158.426 31.852 C 159.159 38.424,161.153 40.636,163.858 37.875 C 164.686 37.031,164.695 36.919,164.126 34.699 C 163.130 30.821,165.237 28.120,168.599 28.964 C 169.784 29.261,170.800 31.208,170.800 33.181 C 170.800 35.136,172.715 37.004,174.081 36.382 C 175.789 35.603,176.187 34.093,175.465 31.123 C 174.874 28.691,173.552 22.190,173.024 19.113 C 172.623 16.777,171.000 15.823,168.874 16.674 M232.831 20.369 C 234.993 22.531,233.713 24.800,230.330 24.800 C 227.995 24.800,226.800 23.829,226.800 21.931 C 226.800 19.034,230.529 18.068,232.831 20.369 M251.708 24.900 C 250.044 29.340,249.313 31.570,248.203 35.600 L 247.266 39.000 248.272 40.063 C 248.831 40.653,249.928 41.239,250.739 41.380 C 251.543 41.519,253.844 42.205,255.852 42.903 C 260.182 44.407,261.608 44.197,261.300 42.102 C 261.139 41.006,260.936 40.884,258.193 40.237 C 254.455 39.356,253.100 38.219,253.276 36.109 C 253.463 33.867,254.825 33.232,257.439 34.166 C 260.961 35.424,261.457 35.423,261.776 34.153 C 262.088 32.912,261.281 32.000,259.871 32.000 C 257.499 32.000,255.454 29.318,256.341 27.371 C 256.934 26.068,260.045 25.887,261.823 27.052 C 264.489 28.799,266.716 28.225,265.937 25.992 C 265.638 25.134,265.212 24.819,264.075 24.614 C 263.264 24.468,261.880 24.022,261.000 23.623 C 259.140 22.780,254.909 21.600,253.747 21.600 C 253.110 21.600,252.692 22.277,251.708 24.900 M142.132 23.646 C 141.667 24.111,140.592 24.643,139.743 24.829 C 132.954 26.313,129.040 30.000,134.254 30.000 C 136.419 30.000,137.589 30.673,138.250 32.297 C 138.586 33.124,139.207 34.532,139.630 35.426 C 140.054 36.321,140.408 37.491,140.418 38.026 C 140.463 40.519,142.902 44.218,144.359 44.002 C 146.861 43.630,146.931 40.974,144.561 36.307 C 144.033 35.266,143.600 34.040,143.600 33.581 C 143.600 33.123,143.400 32.374,143.156 31.918 C 141.950 29.665,142.001 28.909,143.454 27.523 C 145.660 25.415,145.799 24.946,144.558 23.796 C 143.254 22.588,143.194 22.584,142.132 23.646 M277.600 32.427 C 273.042 34.336,273.349 40.202,278.162 43.177 C 280.026 44.329,280.800 45.469,280.800 47.066 C 280.800 48.499,279.358 49.918,278.636 49.196 C 278.418 48.978,277.944 48.800,277.583 48.800 C 277.221 48.800,276.165 47.898,275.236 46.796 C 271.631 42.521,268.458 42.935,270.835 47.370 C 273.041 51.486,280.030 54.083,283.360 52.024 C 286.245 50.242,287.561 46.304,285.845 44.588 C 285.500 44.243,285.079 43.740,284.909 43.471 C 284.739 43.202,283.585 42.126,282.345 41.080 C 279.045 38.299,278.821 35.600,281.890 35.600 C 283.127 35.600,283.632 35.903,285.176 37.567 C 288.204 40.832,291.033 39.090,288.089 35.773 C 285.307 32.638,280.645 31.151,277.600 32.427 M112.000 36.832 C 111.450 37.279,110.280 37.997,109.400 38.427 C 105.849 40.160,104.416 41.072,103.590 42.122 L 102.723 43.224 103.762 44.585 C 104.333 45.334,104.800 46.207,104.800 46.524 C 104.800 46.842,105.053 47.312,105.363 47.569 C 105.673 47.826,106.229 48.614,106.600 49.318 C 106.970 50.023,107.786 51.500,108.413 52.600 C 109.040 53.700,109.878 55.229,110.276 55.998 C 111.673 58.695,112.729 59.583,114.010 59.137 C 116.103 58.407,116.498 57.209,115.322 55.163 C 113.174 51.429,113.453 49.438,116.311 48.097 C 117.869 47.367,118.778 44.864,117.525 44.754 C 116.247 44.642,115.336 44.931,114.488 45.717 C 113.391 46.733,110.867 46.730,110.100 45.711 C 108.706 43.860,110.213 41.327,113.623 39.789 C 115.298 39.034,116.290 37.250,115.484 36.444 C 114.790 35.750,113.098 35.938,112.000 36.832 M302.051 44.906 C 301.598 45.397,300.510 46.790,299.633 48.000 C 298.756 49.210,297.866 50.400,297.656 50.644 C 297.446 50.888,296.894 51.833,296.429 52.744 C 295.964 53.655,295.429 54.400,295.241 54.400 C 295.052 54.400,294.502 55.459,294.018 56.752 L 293.138 59.105 294.153 61.107 C 296.489 65.718,302.507 68.277,305.914 66.109 C 307.320 65.215,309.600 62.779,309.600 62.171 C 309.600 61.911,309.888 61.459,310.239 61.167 C 310.591 60.875,311.667 59.430,312.629 57.955 C 313.592 56.480,314.552 55.212,314.762 55.137 C 315.747 54.784,315.407 52.635,314.279 52.084 C 312.970 51.444,312.480 51.724,310.934 53.994 C 309.941 55.453,308.944 56.887,306.712 60.070 C 304.357 63.428,301.110 64.138,299.202 61.711 C 297.822 59.957,298.752 57.773,303.593 51.400 C 306.257 47.892,306.492 47.203,305.452 45.938 C 303.995 44.167,303.006 43.867,302.051 44.906 M87.162 53.991 C 82.070 56.061,79.585 61.628,81.800 66.000 C 82.350 67.085,82.800 68.212,82.800 68.505 C 82.800 68.797,83.700 69.722,84.800 70.561 C 85.900 71.400,86.800 72.234,86.800 72.415 C 86.800 72.999,91.227 73.687,93.142 73.400 C 99.298 72.477,102.774 66.077,100.142 60.513 C 97.376 54.667,92.064 51.998,87.162 53.991 M91.819 58.470 C 96.793 62.838,98.053 68.267,94.388 69.544 C 91.169 70.667,84.602 63.659,85.467 60.024 C 86.172 57.061,89.333 56.288,91.819 58.470 M323.597 65.503 C 312.517 75.931,312.212 76.330,314.042 78.040 C 315.248 79.166,317.200 79.626,317.200 78.784 C 317.200 78.066,320.560 75.210,321.411 75.205 C 324.099 75.188,324.514 76.956,322.656 80.519 C 321.318 83.087,320.657 85.200,321.192 85.200 C 321.347 85.200,321.817 85.838,322.237 86.618 C 323.276 88.549,325.574 88.095,325.594 85.954 C 325.597 85.599,325.927 84.879,326.327 84.354 C 326.727 83.829,327.286 82.821,327.570 82.113 C 328.105 80.779,328.335 80.651,331.000 80.198 C 333.825 79.719,335.069 78.966,336.184 77.063 L 337.245 75.253 336.339 73.148 C 335.841 71.990,334.613 70.223,333.610 69.221 C 332.607 68.219,330.844 66.375,329.692 65.123 C 328.541 63.871,327.438 62.747,327.243 62.626 C 327.047 62.505,325.406 63.800,323.597 65.503 M330.989 71.066 C 332.202 72.656,332.300 72.968,331.923 74.049 C 330.794 77.288,326.102 76.067,325.443 72.362 C 324.789 68.686,328.508 67.817,330.989 71.066 M56.347 84.558 C 54.873 85.674,54.023 88.397,55.147 88.401 C 55.286 88.401,56.030 88.953,56.800 89.627 C 57.570 90.300,59.010 91.407,60.000 92.086 C 60.990 92.766,62.261 93.789,62.824 94.361 C 66.822 98.420,71.200 100.561,71.200 98.457 C 71.200 98.257,72.648 96.332,74.419 94.177 C 77.894 89.949,78.191 88.985,76.301 88.082 C 75.106 87.511,74.712 87.783,72.446 90.740 C 70.469 93.319,68.340 93.164,65.250 90.217 C 64.233 89.246,62.545 87.802,61.500 87.008 C 60.455 86.213,59.600 85.422,59.600 85.249 C 59.600 84.643,56.971 84.084,56.347 84.558 M346.400 85.498 C 344.987 86.802,342.162 88.793,341.720 88.796 C 341.456 88.798,341.096 89.054,340.920 89.365 C 340.744 89.675,339.614 90.606,338.409 91.434 C 337.204 92.262,335.865 93.267,335.433 93.669 C 335.002 94.071,334.493 94.400,334.302 94.400 C 331.871 94.400,331.584 98.517,333.940 99.591 C 334.958 100.055,334.996 100.037,337.514 97.910 C 341.594 94.464,343.939 98.366,340.379 102.675 C 338.473 104.981,338.376 106.222,339.933 108.372 L 341.067 109.936 342.099 109.068 C 342.667 108.591,343.438 107.570,343.813 106.800 C 345.532 103.268,346.058 102.900,349.623 102.738 C 355.884 102.454,357.477 98.327,353.459 92.800 C 352.419 91.370,351.464 89.885,351.338 89.500 C 351.211 89.115,350.945 88.800,350.747 88.800 C 350.550 88.800,350.064 88.267,349.668 87.616 C 348.514 85.717,347.132 84.822,346.400 85.498 M349.843 92.448 C 351.017 93.744,351.098 97.346,349.972 98.135 C 348.651 99.060,345.600 98.065,345.600 96.709 C 345.600 96.508,345.359 96.102,345.064 95.807 C 344.295 95.037,344.720 92.921,345.818 92.058 C 346.945 91.171,348.856 91.357,349.843 92.448 M45.912 99.100 C 45.341 99.705,44.591 100.830,44.245 101.600 C 43.565 103.114,43.095 103.904,41.701 105.873 C 39.014 109.671,39.458 110.486,46.120 113.967 C 47.396 114.634,49.196 115.695,50.120 116.325 C 55.845 120.230,56.738 120.455,57.897 118.280 C 58.689 116.792,59.453 115.536,61.900 111.693 C 64.111 108.223,64.113 107.196,61.913 106.657 C 60.983 106.430,60.735 106.566,60.202 107.596 C 59.860 108.258,59.404 108.800,59.190 108.800 C 58.975 108.800,58.800 109.160,58.800 109.600 C 58.800 110.478,55.901 113.605,55.100 113.591 C 52.245 113.540,52.113 110.154,54.808 106.107 L 55.669 104.814 54.660 104.355 C 53.222 103.699,52.594 104.081,50.992 106.586 C 49.667 108.656,49.473 108.800,48.002 108.800 C 45.067 108.800,44.912 105.928,47.649 102.285 C 49.465 99.869,49.572 99.098,48.181 98.464 C 46.899 97.880,47.121 97.818,45.912 99.100 M362.800 111.514 C 362.800 111.733,362.125 112.197,361.300 112.545 C 360.475 112.892,359.350 113.422,358.800 113.723 C 356.917 114.753,355.397 115.550,352.200 117.185 C 350.440 118.085,348.484 119.276,347.853 119.832 L 346.706 120.843 347.976 123.121 C 348.674 124.375,349.603 126.210,350.041 127.200 C 350.478 128.190,351.009 129.270,351.220 129.600 C 351.432 129.930,351.911 130.793,352.285 131.519 C 353.076 133.050,354.537 133.165,355.459 131.768 C 355.949 131.024,355.855 130.648,354.583 128.250 C 352.745 124.786,352.712 122.056,354.501 121.430 C 355.975 120.914,357.600 122.108,358.363 124.265 C 359.148 126.484,361.032 127.605,361.660 126.227 C 362.012 125.455,361.908 124.870,361.103 123.112 C 359.866 120.411,360.256 118.506,362.175 117.872 C 363.570 117.410,365.650 119.448,366.455 122.064 C 366.702 122.868,367.400 123.893,368.005 124.340 L 369.104 125.153 369.952 124.251 L 370.799 123.349 369.985 121.575 C 369.538 120.599,369.004 119.530,368.800 119.200 C 367.600 117.259,365.935 114.077,365.520 112.930 C 365.256 112.199,364.820 111.600,364.552 111.600 C 364.285 111.600,363.781 111.491,363.433 111.357 C 363.085 111.224,362.800 111.294,362.800 111.514 M34.586 123.915 C 32.911 125.000,30.999 127.650,30.540 129.521 C 30.395 130.114,29.780 131.575,29.174 132.768 C 27.703 135.660,28.304 137.577,30.687 137.594 C 31.175 137.597,33.331 138.500,35.479 139.600 C 37.626 140.700,39.567 141.611,39.791 141.624 C 40.016 141.636,41.280 142.155,42.600 142.777 C 44.774 143.800,45.101 143.855,46.072 143.358 C 48.459 142.135,48.047 139.192,45.388 138.481 C 42.045 137.587,41.206 135.471,42.641 131.550 C 44.771 125.730,39.498 120.732,34.586 123.915 M39.012 128.939 C 40.580 131.177,38.864 134.800,36.235 134.800 C 35.141 134.800,33.600 133.161,33.600 131.997 C 33.600 128.444,37.229 126.393,39.012 128.939 M366.400 137.832 C 365.190 138.351,363.907 138.781,363.549 138.788 C 363.191 138.794,362.674 139.070,362.400 139.400 C 362.126 139.730,361.659 140.000,361.361 140.000 C 361.064 140.000,360.541 140.540,360.200 141.200 C 359.859 141.860,359.422 142.400,359.229 142.400 C 358.658 142.400,358.000 144.776,358.000 146.841 C 358.000 149.388,358.918 151.282,361.151 153.340 C 361.354 153.527,361.934 154.058,362.440 154.520 C 364.106 156.041,366.967 155.748,367.130 154.039 C 367.259 152.689,365.793 150.854,364.554 150.814 C 360.413 150.681,361.616 145.080,366.240 142.965 C 370.517 141.008,376.958 142.678,373.527 144.854 C 373.124 145.109,373.159 145.189,373.673 145.194 C 375.153 145.207,374.896 147.499,373.300 148.520 C 373.025 148.696,372.800 149.365,372.800 150.007 C 372.800 152.749,376.837 152.497,377.941 149.686 C 380.992 141.916,373.890 134.622,366.400 137.832 M37.079 153.455 C 36.939 153.595,35.874 153.767,34.712 153.837 C 21.851 154.617,22.885 154.355,21.981 157.057 C 21.322 159.026,22.055 161.600,23.273 161.600 C 23.688 161.600,32.651 166.914,35.400 168.789 C 39.392 171.512,41.897 168.944,38.034 166.089 C 36.557 164.996,36.315 163.548,37.264 161.472 C 38.517 158.731,38.614 158.621,40.239 158.091 C 42.995 157.191,44.042 155.035,42.311 153.823 C 41.433 153.208,37.595 152.938,37.079 153.455 M32.640 158.246 C 34.954 159.344,34.224 162.400,31.648 162.400 C 29.113 162.400,27.803 159.364,29.857 158.251 C 31.277 157.482,31.031 157.482,32.640 158.246 M380.286 161.962 C 379.909 162.601,379.600 163.557,379.600 164.086 C 379.600 165.249,378.249 166.800,377.235 166.800 C 376.831 166.800,375.758 167.062,374.850 167.382 C 373.943 167.702,371.314 168.177,369.008 168.436 L 364.816 168.908 364.573 170.202 C 364.006 173.227,364.211 173.415,367.949 173.275 C 370.047 173.197,372.029 172.862,373.257 172.377 C 378.128 170.457,380.482 171.015,382.684 174.610 C 384.006 176.768,385.716 172.533,384.601 169.863 C 384.271 169.074,383.816 167.124,383.590 165.529 C 383.003 161.392,381.550 159.823,380.286 161.962 M18.108 179.862 C 17.403 181.884,18.399 183.200,20.633 183.200 C 24.919 183.200,27.080 186.920,24.369 189.631 C 23.708 190.292,23.104 190.426,21.080 190.361 C 17.332 190.241,16.800 190.514,16.800 192.563 C 16.800 194.947,17.409 195.139,27.138 195.824 C 34.702 196.356,35.392 196.350,36.068 195.739 C 38.021 193.971,36.238 191.311,33.085 191.287 C 30.290 191.265,29.200 190.411,29.200 188.245 C 29.200 185.116,30.301 184.259,33.890 184.596 C 37.256 184.911,37.963 184.489,37.987 182.149 C 38.010 179.959,35.677 179.387,24.901 178.943 L 18.520 178.680 18.108 179.862 M376.000 186.287 C 366.504 186.919,366.395 186.957,366.406 189.576 C 366.418 192.352,365.093 192.238,381.105 190.839 C 385.214 190.480,386.400 189.844,386.400 188.000 C 386.400 187.081,385.287 185.482,384.769 185.657 C 384.676 185.688,380.730 185.972,376.000 186.287 M370.567 203.638 C 366.535 205.762,364.913 209.501,365.972 214.233 C 367.725 222.064,379.890 223.996,384.605 217.193 C 386.618 214.288,386.491 208.491,384.367 206.367 C 384.000 206.000,383.632 205.541,383.550 205.346 C 382.456 202.769,374.264 201.691,370.567 203.638 M31.500 207.076 C 30.065 207.451,30.596 209.853,32.373 211.030 C 38.856 215.320,32.652 220.481,23.307 218.571 C 21.498 218.201,20.480 214.183,21.900 213.018 C 22.285 212.702,22.986 212.118,23.458 211.721 C 26.060 209.533,24.210 206.973,21.144 208.520 C 14.051 212.099,17.894 223.299,26.425 223.909 C 37.590 224.708,43.049 213.509,34.282 207.790 C 33.447 207.246,32.637 206.821,32.482 206.846 C 32.327 206.872,31.885 206.975,31.500 207.076 M380.134 208.839 C 381.335 209.635,382.087 210.458,382.236 211.139 C 382.363 211.723,382.537 212.427,382.623 212.705 C 383.373 215.135,376.160 217.136,372.763 215.441 C 372.056 215.089,371.239 214.800,370.948 214.800 C 368.515 214.800,369.100 208.591,371.600 207.867 C 374.073 207.150,378.313 207.633,380.134 208.839 M178.254 210.500 C 177.557 211.020,177.715 211.261,180.713 214.228 C 183.300 216.789,184.201 218.019,185.393 220.613 C 187.528 225.260,189.217 226.111,190.357 223.114 C 191.000 221.421,193.033 222.381,194.224 224.941 L 195.128 226.882 195.777 225.891 C 196.318 225.065,196.353 224.608,195.986 223.150 C 195.743 222.187,195.452 221.023,195.338 220.563 C 195.127 219.709,196.073 218.400,196.902 218.400 C 197.147 218.400,198.216 219.301,199.278 220.403 L 201.208 222.406 202.003 221.103 C 202.439 220.386,202.861 219.620,202.940 219.400 C 203.222 218.611,204.800 220.530,204.800 221.662 C 204.800 223.941,206.847 225.085,207.551 223.200 C 207.798 222.540,208.196 221.475,208.435 220.833 C 209.079 219.103,211.011 219.813,211.599 221.996 C 212.165 224.098,213.000 224.297,214.104 222.594 C 215.013 221.190,215.433 220.978,216.260 221.506 C 216.879 221.902,217.024 222.779,216.684 224.067 C 216.528 224.654,216.536 225.497,216.701 225.941 C 217.083 226.970,221.011 224.040,221.447 222.400 C 221.978 220.405,224.233 216.684,225.656 215.456 C 230.022 211.691,230.600 210.937,229.361 210.626 C 228.828 210.492,217.992 210.395,205.280 210.410 C 192.569 210.424,181.456 210.326,180.584 210.190 C 179.520 210.025,178.755 210.126,178.254 210.500 M164.631 221.150 C 163.493 222.991,164.587 255.638,165.870 258.130 C 166.190 258.752,166.558 260.532,166.688 262.086 C 166.876 264.319,167.205 265.376,168.263 267.132 C 168.998 268.354,169.606 269.724,169.614 270.176 C 169.622 270.629,169.886 271.450,170.200 272.000 C 170.514 272.550,170.778 273.597,170.786 274.326 C 170.802 275.827,171.337 277.010,172.561 278.250 C 173.369 279.068,174.381 280.453,176.034 283.000 C 177.596 285.406,178.877 287.052,181.115 289.524 C 184.345 293.093,189.952 298.800,190.229 298.800 C 190.357 298.800,191.473 299.524,192.710 300.410 C 195.950 302.730,196.777 301.968,196.069 297.317 C 195.440 293.186,195.481 289.883,196.194 287.205 L 196.778 285.011 195.401 283.602 C 194.645 282.826,193.814 281.587,193.557 280.847 L 193.088 279.502 192.471 280.519 C 191.507 282.108,188.920 282.991,188.538 281.862 C 188.163 280.752,188.337 279.625,189.040 278.621 C 189.666 277.727,189.789 276.400,189.246 276.400 C 189.051 276.400,188.621 276.814,188.290 277.320 C 186.126 280.622,183.283 278.586,184.970 274.942 C 186.374 271.909,185.860 271.259,183.600 273.211 C 180.791 275.636,177.944 274.815,179.401 271.999 C 180.237 270.381,179.651 269.837,177.972 270.674 C 174.009 272.651,172.271 270.183,175.571 267.266 C 177.747 265.343,178.252 263.649,176.502 264.143 C 173.852 264.892,172.473 264.845,171.667 263.980 L 170.850 263.103 171.925 261.982 C 172.516 261.365,173.630 260.516,174.400 260.096 C 176.362 259.024,176.155 258.638,173.463 258.349 C 169.749 257.950,169.031 255.794,171.957 253.828 L 173.106 253.057 171.853 252.215 C 169.313 250.510,169.928 248.513,173.108 248.136 C 176.006 247.793,176.080 247.003,173.278 246.319 C 168.554 245.167,168.248 242.420,172.777 241.834 C 175.622 241.466,175.787 241.323,174.575 240.278 C 173.670 239.498,173.535 239.021,173.363 236.000 C 173.256 234.130,172.905 231.584,172.584 230.342 C 172.263 229.101,172.000 227.429,172.000 226.628 C 172.000 223.782,165.836 219.200,164.631 221.150 M238.944 222.188 C 236.273 223.940,234.800 226.827,234.800 230.313 C 234.800 231.612,234.454 233.680,234.031 234.908 L 233.263 237.142 234.131 238.071 L 235.000 239.000 234.013 240.525 C 233.269 241.674,232.605 242.162,231.320 242.506 C 229.207 243.071,229.817 243.585,232.611 243.594 C 233.791 243.597,234.996 243.862,235.528 244.235 L 236.434 244.869 234.567 246.535 C 233.541 247.451,232.262 248.393,231.727 248.630 C 230.773 249.051,230.785 249.069,232.338 249.534 C 236.554 250.797,237.058 254.039,233.146 254.738 L 231.400 255.051 233.254 255.343 C 237.331 255.986,237.841 260.400,233.838 260.400 C 232.543 260.400,232.198 261.009,233.118 261.673 C 235.583 263.450,234.229 265.208,230.760 264.734 C 227.933 264.347,225.921 264.657,227.490 265.238 C 228.455 265.595,230.800 268.595,230.800 269.473 C 230.800 270.948,228.402 270.747,225.918 269.064 C 223.724 267.578,223.690 269.123,225.859 271.731 C 226.990 273.090,227.004 273.260,226.073 274.409 C 225.219 275.464,224.303 275.158,222.113 273.086 C 220.473 271.534,219.872 272.451,221.161 274.537 C 223.075 277.633,221.994 278.987,219.143 277.064 C 216.135 275.036,215.567 276.006,217.016 280.700 C 217.330 281.719,215.510 282.008,213.969 281.183 C 212.795 280.555,211.232 282.487,211.206 284.600 C 211.195 285.480,210.924 287.799,210.604 289.754 C 209.717 295.160,210.464 301.200,212.018 301.200 C 213.267 301.200,215.384 299.853,218.221 297.253 C 219.333 296.234,221.088 294.639,222.121 293.710 C 223.155 292.780,224.000 291.808,224.000 291.549 C 224.000 291.289,224.923 290.070,226.052 288.839 C 227.181 287.607,228.598 286.060,229.201 285.400 C 229.804 284.740,230.751 283.300,231.306 282.200 C 231.860 281.100,232.679 279.869,233.127 279.465 C 234.375 278.337,237.765 271.065,238.246 268.485 C 238.398 267.668,238.867 266.337,239.287 265.527 C 239.708 264.718,240.143 263.008,240.255 261.727 C 240.366 260.447,240.701 258.770,240.999 258.000 C 241.929 255.597,242.060 253.050,242.077 237.138 C 242.097 218.937,242.315 219.978,238.944 222.188 M363.673 230.822 C 361.400 231.734,362.643 233.195,366.884 234.594 C 369.020 235.298,371.090 236.122,371.484 236.424 C 371.878 236.726,372.252 237.001,372.315 237.035 C 373.603 237.724,370.592 239.764,367.345 240.404 C 360.127 241.826,357.118 246.748,363.078 247.385 C 364.355 247.521,366.303 247.986,367.408 248.416 C 368.512 248.847,369.772 249.203,370.208 249.207 C 370.643 249.211,372.260 249.499,373.800 249.846 C 378.492 250.906,380.483 250.298,379.486 248.109 C 379.054 247.162,378.713 247.029,375.658 246.614 C 370.638 245.932,370.388 243.469,375.165 241.760 C 380.330 239.912,381.217 239.437,382.005 238.101 C 383.258 235.977,383.069 235.007,381.300 234.488 C 380.475 234.246,378.866 233.767,377.725 233.424 C 376.584 233.081,375.095 232.800,374.417 232.800 C 373.739 232.800,372.146 232.378,370.878 231.863 C 368.163 230.760,364.977 230.300,363.673 230.822 M184.142 244.704 C 183.001 244.891,182.778 246.225,183.225 250.188 C 183.456 252.232,183.444 253.516,183.192 253.768 C 182.647 254.313,182.702 255.742,183.290 256.330 C 183.668 256.708,183.673 256.992,183.309 257.574 C 183.029 258.022,182.812 260.220,182.774 262.985 C 182.709 267.653,182.929 269.017,183.427 267.033 C 183.601 266.341,184.151 265.780,185.008 265.422 C 185.731 265.120,186.442 264.497,186.588 264.037 C 186.734 263.576,187.067 263.192,187.327 263.181 C 187.587 263.171,186.935 262.713,185.879 262.163 L 183.958 261.163 184.751 259.879 C 185.360 258.894,185.543 257.898,185.538 255.598 C 185.534 253.949,185.631 250.862,185.753 248.738 C 185.988 244.658,185.892 244.419,184.142 244.704 M220.215 245.931 C 220.079 246.552,220.154 247.554,220.383 248.157 C 220.613 248.759,220.800 250.860,220.800 252.826 C 220.800 254.942,220.963 256.400,221.200 256.400 C 221.420 256.400,221.600 256.957,221.600 257.637 C 221.600 258.317,221.960 259.331,222.400 259.891 L 223.200 260.908 223.200 258.649 C 223.200 257.406,222.981 256.039,222.714 255.611 C 222.332 255.000,222.332 254.543,222.714 253.488 C 223.505 251.300,223.351 246.260,222.469 245.462 C 221.367 244.465,220.497 244.646,220.215 245.931 M200.000 258.216 C 199.450 258.531,198.264 258.791,197.364 258.794 C 196.010 258.799,195.650 258.972,195.273 259.800 C 195.022 260.350,194.487 260.800,194.083 260.800 C 193.680 260.800,192.832 261.340,192.200 262.000 L 191.050 263.200 192.498 263.200 C 193.552 263.200,194.010 263.000,194.179 262.465 C 194.645 260.999,196.922 260.764,198.126 262.058 C 198.709 262.686,199.435 263.200,199.737 263.200 C 200.040 263.200,201.303 263.742,202.545 264.405 L 204.803 265.610 206.008 264.305 C 206.892 263.349,207.165 262.722,207.029 261.961 C 206.873 261.084,207.094 260.782,208.449 260.021 C 210.614 258.804,210.690 258.831,202.400 257.815 C 201.608 257.718,200.566 257.892,200.000 258.216 M212.200 261.200 C 212.336 261.420,212.696 261.600,213.000 261.600 C 213.304 261.600,213.664 261.420,213.800 261.200 C 213.941 260.972,213.596 260.800,213.000 260.800 C 212.404 260.800,212.059 260.972,212.200 261.200 M222.044 262.045 C 221.531 262.460,220.636 262.812,220.056 262.827 C 219.008 262.854,219.007 262.857,219.900 263.288 C 220.395 263.527,220.800 263.937,220.800 264.199 C 220.800 264.461,221.144 264.987,221.564 265.367 C 221.984 265.748,222.438 266.496,222.572 267.029 C 222.920 268.416,223.468 268.228,223.770 266.617 C 223.913 265.856,224.288 264.736,224.604 264.127 C 225.120 263.132,225.108 262.983,224.489 262.660 C 224.110 262.462,223.615 262.073,223.389 261.795 C 223.063 261.395,222.781 261.448,222.044 262.045 M216.270 262.598 C 215.643 263.056,215.639 263.129,216.221 263.353 C 217.953 264.017,219.473 263.235,217.869 262.504 C 217.210 262.204,216.774 262.230,216.270 262.598 M244.445 264.772 C 244.036 265.025,243.957 265.702,244.132 267.455 C 244.677 272.890,244.955 274.193,245.857 275.522 C 246.376 276.287,246.815 277.202,246.832 277.556 C 246.851 277.917,247.106 277.673,247.414 277.000 C 248.121 275.453,247.769 273.214,246.668 272.261 C 245.934 271.625,245.814 271.085,245.807 268.381 C 245.800 265.167,245.423 264.168,244.445 264.772 M164.838 269.400 C 164.809 273.020,165.084 273.727,166.445 273.535 C 167.766 273.348,168.069 271.003,166.824 270.608 C 166.367 270.462,165.897 269.870,165.766 269.273 C 165.100 266.242,164.863 266.274,164.838 269.400 M180.600 268.800 C 180.169 269.497,180.808 270.092,181.431 269.574 C 181.739 269.318,181.893 268.950,181.772 268.755 C 181.480 268.283,180.906 268.305,180.600 268.800 M43.400 274.640 C 41.039 276.049,39.323 276.800,38.467 276.800 C 38.049 276.800,37.250 277.160,36.691 277.600 C 36.131 278.040,35.522 278.406,35.337 278.413 C 31.762 278.547,31.319 285.581,34.641 289.468 C 37.389 292.686,39.224 292.682,45.073 289.446 C 46.808 288.487,48.810 287.574,49.521 287.417 C 51.036 287.084,52.274 285.234,51.500 284.460 C 50.751 283.711,49.383 283.927,47.125 285.153 C 45.956 285.787,44.553 286.442,44.008 286.609 C 43.462 286.776,42.557 287.251,41.998 287.665 C 38.756 290.062,34.760 287.223,36.373 283.669 C 36.893 282.525,37.722 281.980,42.289 279.779 C 47.600 277.219,47.600 277.219,47.600 275.824 C 47.600 273.489,46.057 273.054,43.400 274.640 M159.818 275.581 C 158.542 276.913,158.547 277.006,159.971 278.629 L 161.143 279.963 161.971 278.559 C 163.792 275.473,162.128 273.171,159.818 275.581 M240.893 279.600 C 240.893 280.370,240.975 280.685,241.076 280.300 C 241.176 279.915,241.176 279.285,241.076 278.900 C 240.975 278.515,240.893 278.830,240.893 279.600 M170.800 280.800 C 170.800 281.547,170.907 281.653,171.280 281.280 C 171.653 280.907,171.653 280.693,171.280 280.320 C 170.907 279.947,170.800 280.053,170.800 280.800 M235.771 280.634 C 235.123 280.914,235.596 283.169,236.392 283.596 C 237.551 284.216,238.458 283.245,238.069 281.800 C 237.760 280.650,236.828 280.177,235.771 280.634 M162.504 281.878 C 161.962 283.041,162.052 283.342,162.879 283.135 C 163.237 283.046,163.349 282.631,163.210 281.907 L 163.000 280.814 162.504 281.878 M244.543 282.722 C 244.252 282.908,244.213 283.727,244.425 285.200 C 244.599 286.410,244.755 287.755,244.771 288.189 C 244.800 288.974,244.804 288.974,245.588 288.189 C 246.344 287.433,246.351 287.301,245.752 285.000 C 245.028 282.223,245.103 282.363,244.543 282.722 M159.934 284.530 C 158.677 285.002,158.405 286.016,158.690 289.162 C 158.937 291.883,158.185 297.059,157.360 298.318 C 156.803 299.168,156.827 299.295,157.679 300.005 C 158.892 301.017,159.073 300.993,159.732 299.736 C 160.038 299.151,160.899 298.386,161.645 298.035 C 163.492 297.166,163.611 295.827,162.019 293.824 C 161.349 292.980,160.800 291.965,160.800 291.569 C 160.800 291.172,160.603 290.725,160.362 290.576 C 159.853 290.262,160.053 288.926,160.981 286.439 C 161.728 284.436,161.465 283.956,159.934 284.530 M232.479 287.787 C 232.052 288.723,232.053 288.986,232.480 289.253 C 233.032 289.600,233.372 288.586,233.127 287.319 C 233.033 286.826,232.860 286.951,232.479 287.787 M168.800 290.200 C 168.800 290.530,168.620 290.800,168.400 290.800 C 168.180 290.800,168.000 290.980,168.000 291.200 C 168.000 291.420,168.270 291.600,168.600 291.600 C 168.973 291.600,169.200 291.222,169.200 290.600 C 169.200 290.050,169.110 289.600,169.000 289.600 C 168.890 289.600,168.800 289.870,168.800 290.200 M176.478 290.506 C 176.191 290.851,176.221 291.214,176.577 291.701 C 177.281 292.663,177.600 292.576,177.600 291.424 C 177.600 290.261,177.053 289.813,176.478 290.506 M166.515 292.364 C 166.136 292.972,166.149 293.172,166.580 293.337 C 167.265 293.600,167.600 293.270,167.600 292.333 C 167.600 291.384,167.119 291.398,166.515 292.364 M53.355 293.582 C 52.500 294.232,51.350 295.146,50.800 295.613 C 49.092 297.064,44.252 300.393,43.508 300.629 C 43.012 300.787,42.800 301.265,42.800 302.227 C 42.800 304.256,44.627 304.173,47.058 302.032 C 49.382 299.987,50.956 299.414,51.835 300.292 C 52.589 301.046,52.380 303.306,51.462 304.350 C 51.147 304.707,50.770 305.561,50.625 306.246 C 50.479 306.931,49.999 307.880,49.556 308.355 C 47.672 310.378,49.787 314.408,52.068 313.140 C 53.260 312.477,55.978 310.473,59.410 307.727 C 60.835 306.587,62.333 305.548,62.740 305.419 C 63.957 305.033,64.565 303.246,63.777 302.374 C 62.989 301.504,61.498 301.976,60.198 303.506 C 58.974 304.945,56.017 305.257,55.954 303.953 C 55.872 302.252,56.061 301.435,57.028 299.311 C 59.580 293.706,57.487 290.441,53.355 293.582 M345.741 293.477 C 344.201 293.778,344.297 295.123,345.933 296.171 C 349.089 298.190,350.690 300.803,349.246 301.576 C 348.077 302.201,344.867 302.092,342.953 301.361 C 341.377 300.759,341.233 300.765,340.504 301.461 C 340.078 301.867,339.438 302.380,339.082 302.600 C 337.795 303.394,338.059 305.253,339.600 306.253 C 340.370 306.753,341.900 307.864,343.000 308.723 C 349.161 313.530,351.661 314.829,352.945 313.889 C 353.916 313.180,353.463 312.314,351.522 311.170 C 344.669 307.131,345.094 305.347,352.871 305.516 C 358.552 305.639,359.266 305.452,359.787 303.697 C 360.105 302.629,358.825 301.270,355.758 299.417 C 354.681 298.766,352.720 297.412,351.400 296.408 C 348.877 294.489,346.906 293.163,346.714 293.254 C 346.651 293.284,346.213 293.385,345.741 293.477 M226.211 294.642 C 225.440 295.205,225.440 295.218,226.216 295.979 C 226.990 296.737,227.009 296.735,227.706 295.791 C 228.633 294.534,227.523 293.682,226.211 294.642 M245.973 295.141 C 245.245 295.731,244.795 295.826,244.062 295.548 C 243.018 295.150,242.000 295.689,242.000 296.639 C 242.000 298.096,238.723 298.796,237.835 297.529 C 237.500 297.050,236.680 296.429,236.013 296.149 L 234.800 295.639 234.800 297.333 C 234.800 298.792,234.967 299.126,236.000 299.736 C 236.660 300.126,237.200 300.613,237.200 300.818 C 237.200 301.339,239.913 302.955,241.646 303.466 C 243.311 303.956,244.065 303.660,245.505 301.949 C 246.048 301.303,247.034 300.717,247.830 300.568 C 250.229 300.118,250.312 297.615,248.000 295.400 C 246.929 294.374,246.922 294.373,245.973 295.141 M170.800 297.200 C 170.800 297.947,170.907 298.053,171.280 297.680 C 171.653 297.307,171.653 297.093,171.280 296.720 C 170.907 296.347,170.800 296.453,170.800 297.200 M164.320 298.613 C 164.203 298.731,164.224 299.400,164.367 300.100 C 164.664 301.551,166.786 302.381,167.622 301.374 C 168.601 300.194,165.409 297.525,164.320 298.613 M180.854 308.000 C 180.831 309.725,180.915 310.043,181.246 309.475 C 181.532 308.984,181.541 308.275,181.275 307.275 C 180.884 305.806,180.883 305.809,180.854 308.000 M214.812 311.420 C 214.823 312.454,214.877 312.509,215.254 311.861 C 215.561 311.332,215.558 310.998,215.241 310.681 C 214.920 310.360,214.803 310.559,214.812 311.420 M69.641 311.484 C 69.334 311.606,68.549 312.314,67.897 313.056 C 67.245 313.799,66.281 314.515,65.755 314.647 C 65.230 314.779,64.800 315.020,64.800 315.182 C 64.800 315.344,63.270 316.708,61.400 318.212 C 57.835 321.079,57.321 322.072,58.557 323.700 C 59.607 325.084,62.033 324.015,65.140 320.798 C 65.503 320.422,67.108 318.997,68.707 317.632 C 72.748 314.182,73.183 313.459,71.986 312.185 C 71.054 311.193,70.668 311.078,69.641 311.484 M211.942 312.682 C 210.183 312.953,210.137 314.985,211.877 315.519 C 213.123 315.901,213.219 315.862,213.457 314.863 C 213.596 314.278,213.870 313.596,214.065 313.347 C 214.347 312.987,213.410 312.155,213.067 312.460 C 213.030 312.493,212.524 312.593,211.942 312.682 M204.643 314.632 C 204.476 315.066,204.814 315.200,206.079 315.200 C 207.939 315.200,207.946 315.103,206.131 314.491 C 205.115 314.148,204.818 314.176,204.643 314.632 M196.800 314.871 C 196.800 315.424,199.164 316.296,200.152 316.107 C 201.171 315.912,202.414 314.851,201.749 314.743 C 200.558 314.549,196.800 314.646,196.800 314.871 M328.415 315.359 C 328.194 315.943,327.726 316.530,327.376 316.664 C 326.659 316.940,326.884 318.565,327.784 319.600 C 328.071 319.930,328.434 320.623,328.592 321.139 C 328.750 321.656,329.221 322.421,329.639 322.839 C 330.058 323.258,330.400 323.936,330.400 324.346 C 330.400 324.756,330.738 325.521,331.150 326.046 C 331.563 326.571,332.238 327.645,332.650 328.433 C 335.018 332.959,334.927 332.842,335.983 332.719 C 336.903 332.611,336.990 332.447,336.899 331.000 C 336.644 326.947,336.988 325.882,338.969 324.583 C 340.044 323.879,340.766 323.808,342.809 324.203 C 346.332 324.884,346.761 321.653,343.309 320.434 C 342.479 320.141,341.530 319.675,341.200 319.398 C 340.870 319.121,340.150 318.760,339.600 318.595 C 339.050 318.430,338.150 317.990,337.600 317.617 C 337.050 317.245,335.970 316.699,335.200 316.404 C 334.430 316.109,333.492 315.607,333.116 315.287 C 331.733 314.110,328.874 314.154,328.415 315.359 M77.935 321.164 C 77.373 321.954,76.698 323.261,76.436 324.068 C 76.174 324.875,75.698 325.752,75.380 326.017 C 75.061 326.282,74.799 326.701,74.798 326.949 C 74.797 327.197,74.258 328.210,73.600 329.200 C 72.942 330.190,72.399 331.270,72.393 331.600 C 72.387 331.930,72.030 332.650,71.600 333.200 C 69.685 335.649,73.167 340.255,75.480 338.333 C 76.219 337.719,80.177 335.586,85.500 332.935 C 88.876 331.252,89.200 330.991,89.200 329.946 C 89.200 328.430,87.400 328.363,85.286 329.800 C 84.477 330.350,83.586 330.800,83.307 330.800 C 83.028 330.800,82.800 330.989,82.800 331.220 C 82.800 331.615,81.312 332.365,79.322 332.972 C 76.535 333.822,77.384 329.105,80.868 324.394 C 81.930 322.957,81.589 321.235,80.068 320.364 C 78.973 319.737,78.942 319.749,77.935 321.164 M335.500 320.493 C 336.545 321.006,336.710 322.624,335.839 323.814 C 334.506 325.637,331.344 322.757,332.322 320.611 C 332.830 319.496,333.428 319.474,335.500 320.493 M314.000 329.794 C 313.010 330.320,311.677 331.212,311.038 331.776 C 310.399 332.339,309.679 332.801,309.438 332.803 C 309.023 332.805,307.778 334.580,307.127 336.096 C 306.926 336.565,307.118 337.097,307.714 337.726 C 310.549 340.714,314.399 344.857,315.690 346.306 C 318.051 348.959,318.608 348.906,321.878 345.719 C 327.018 340.710,327.681 336.975,324.160 332.861 C 321.147 329.341,317.132 328.129,314.000 329.794 M319.600 334.633 C 323.044 337.918,323.277 341.091,320.200 342.816 L 319.000 343.489 317.100 341.474 C 316.055 340.365,315.200 339.310,315.200 339.129 C 315.200 338.948,314.934 338.800,314.608 338.800 C 313.999 338.800,312.400 336.085,312.400 335.051 C 312.400 334.099,314.746 332.400,316.060 332.400 C 316.970 332.400,317.825 332.940,319.600 334.633 M93.899 335.964 C 93.294 336.604,92.800 337.293,92.800 337.494 C 92.800 337.696,92.360 338.274,91.823 338.779 C 91.285 339.284,90.556 340.305,90.204 341.049 C 89.851 341.792,89.391 342.400,89.181 342.400 C 88.972 342.400,88.800 342.645,88.800 342.945 C 88.800 343.245,88.377 343.920,87.859 344.445 C 85.377 346.963,85.366 348.718,87.823 350.487 C 88.825 351.209,90.745 352.655,92.088 353.700 C 93.432 354.745,94.727 355.597,94.966 355.594 C 96.622 355.571,96.541 353.149,94.849 352.103 C 92.487 350.642,91.600 349.506,91.600 347.939 C 91.600 345.507,93.798 344.809,95.896 346.574 C 98.918 349.117,100.588 347.863,97.832 345.120 C 93.487 340.796,96.564 337.858,101.339 341.771 C 103.590 343.616,105.200 343.722,105.200 342.027 C 105.200 341.200,104.961 340.778,104.389 340.597 C 103.943 340.455,102.794 339.661,101.836 338.831 C 100.878 338.002,99.442 336.921,98.647 336.429 C 97.851 335.937,97.200 335.369,97.200 335.167 C 97.200 334.306,94.952 334.848,93.899 335.964 M294.045 344.055 C 292.501 345.459,292.238 347.348,293.300 349.414 C 293.635 350.066,294.115 351.590,294.367 352.800 C 296.108 361.156,299.572 365.738,299.594 359.714 C 299.599 358.393,299.877 357.712,300.879 356.571 C 302.273 354.983,301.926 355.020,307.622 355.860 C 310.168 356.235,310.765 353.379,308.350 352.379 C 307.707 352.113,307.050 351.687,306.891 351.433 C 306.635 351.025,303.178 348.088,301.674 347.000 C 301.370 346.780,300.644 346.135,300.061 345.566 C 297.192 342.769,295.835 342.428,294.045 344.055 M112.353 346.670 C 111.997 346.763,111.229 347.716,110.645 348.789 C 110.061 349.861,109.452 350.798,109.292 350.869 C 109.131 350.941,108.370 352.228,107.600 353.730 C 106.830 355.231,105.917 356.615,105.572 356.805 C 104.581 357.351,103.784 360.208,104.305 361.350 C 105.031 362.945,106.979 362.954,107.736 361.365 C 108.716 359.310,110.872 357.868,112.116 358.435 C 113.190 358.924,113.754 360.565,113.202 361.596 C 112.876 362.205,112.682 364.147,112.762 366.000 C 112.892 369.023,116.565 368.565,116.647 365.515 C 116.720 362.814,117.702 361.331,120.200 360.148 C 125.196 357.782,124.917 353.277,119.580 350.125 C 118.931 349.741,118.400 349.286,118.400 349.114 C 118.400 348.941,118.155 348.800,117.856 348.800 C 117.557 348.800,116.675 348.368,115.897 347.840 C 114.300 346.756,113.297 346.425,112.353 346.670 M300.168 350.365 C 301.563 351.906,300.161 354.802,298.520 353.767 C 297.249 352.965,296.302 351.340,296.585 350.448 C 296.940 349.328,299.183 349.276,300.168 350.365 M117.380 351.664 C 118.763 352.294,119.421 354.603,118.582 355.884 C 117.247 357.922,113.200 356.621,113.200 354.154 C 113.200 351.749,115.092 350.621,117.380 351.664 M276.370 353.994 C 269.528 356.875,269.185 358.066,273.254 364.800 C 273.453 365.130,273.887 366.030,274.218 366.800 C 276.912 373.072,277.311 373.276,282.285 370.931 C 287.185 368.621,289.200 366.727,289.200 364.434 C 289.200 363.517,286.973 360.800,286.221 360.800 C 285.266 360.800,284.493 359.382,284.223 357.132 C 283.694 352.733,281.472 351.845,276.370 353.994 M279.911 356.623 C 281.176 357.509,281.092 359.312,279.735 360.380 C 276.730 362.743,274.095 360.897,275.792 357.616 C 276.677 355.904,278.319 355.508,279.911 356.623 M131.979 358.492 C 128.496 359.880,129.765 367.492,133.494 367.587 C 134.352 367.609,136.102 370.649,135.801 371.596 C 135.560 372.355,134.177 373.200,133.175 373.200 C 132.569 373.200,129.655 370.404,129.390 369.569 C 129.212 369.007,128.776 368.800,127.773 368.800 C 124.492 368.800,126.957 373.238,131.345 375.231 C 139.040 378.725,144.670 370.382,137.397 366.262 C 133.000 363.772,133.679 359.165,138.105 361.454 C 138.801 361.814,139.705 362.534,140.114 363.055 C 140.784 363.906,142.328 364.059,143.154 363.357 C 143.376 363.167,142.352 360.800,142.047 360.800 C 141.907 360.800,141.342 360.383,140.792 359.872 C 138.906 358.124,134.597 357.449,131.979 358.492 M258.272 361.856 C 257.656 363.032,258.337 365.941,259.984 369.169 C 260.433 370.049,260.800 371.029,260.800 371.347 C 260.800 371.832,261.614 373.693,263.184 376.800 C 263.724 377.868,266.110 377.565,266.690 376.356 C 267.135 375.428,267.038 375.000,265.823 372.503 C 265.071 370.958,264.246 368.908,263.989 367.947 C 263.732 366.986,263.112 365.300,262.612 364.200 C 262.111 363.100,261.594 361.885,261.463 361.500 C 261.070 360.343,258.941 360.580,258.272 361.856 M282.581 362.793 C 285.325 363.836,283.949 368.345,280.874 368.387 C 278.142 368.425,277.457 365.804,279.631 363.631 C 280.997 362.265,281.109 362.233,282.581 362.793 M152.252 364.592 C 151.841 364.903,151.150 366.383,150.718 367.879 C 150.286 369.376,149.775 371.140,149.583 371.800 C 147.331 379.538,147.380 381.534,149.816 381.273 C 151.411 381.102,151.561 380.894,151.986 378.289 C 152.187 377.050,152.530 375.704,152.748 375.298 C 153.404 374.071,155.200 367.325,155.200 366.086 C 155.200 364.444,153.551 363.608,152.252 364.592 M241.400 366.400 C 240.740 366.568,239.390 366.728,238.400 366.757 C 237.410 366.785,235.632 367.258,234.449 367.809 L 232.298 368.810 232.571 370.868 C 232.721 371.999,233.109 373.438,233.434 374.065 C 233.758 374.692,234.206 376.666,234.430 378.453 C 234.993 382.942,236.391 385.713,237.909 385.349 C 239.435 384.983,239.400 385.070,239.400 381.628 C 239.400 378.205,239.781 377.400,241.586 377.003 C 243.254 376.637,244.321 375.349,243.573 374.605 C 243.131 374.166,242.635 374.121,241.400 374.408 C 238.581 375.065,237.600 374.504,237.600 372.233 C 237.600 370.641,238.595 369.648,240.499 369.339 C 242.574 369.002,244.338 367.490,243.639 366.647 C 243.344 366.291,242.989 366.021,242.851 366.047 C 242.713 366.073,242.060 366.232,241.400 366.400 M163.280 367.280 C 162.549 368.011,162.699 369.514,163.529 369.778 C 165.851 370.514,166.574 372.823,165.445 375.892 C 163.573 380.982,163.815 385.847,165.916 385.352 C 167.501 384.979,167.633 384.755,167.996 381.833 C 168.177 380.369,168.524 378.932,168.766 378.640 C 169.009 378.349,169.401 377.050,169.638 375.755 C 170.101 373.230,170.889 372.000,172.043 372.000 C 172.439 372.000,173.204 371.799,173.744 371.553 C 175.263 370.861,174.455 368.802,172.661 368.794 C 171.362 368.788,167.045 367.578,166.547 367.080 C 166.089 366.622,163.798 366.762,163.280 367.280 M182.024 370.571 C 181.654 371.017,181.687 371.409,182.175 372.351 C 182.519 373.016,182.800 373.817,182.800 374.131 C 182.800 374.445,183.060 374.918,183.377 375.181 C 183.695 375.445,184.325 376.772,184.777 378.130 C 185.524 380.377,185.632 381.476,185.503 385.516 C 185.447 387.293,186.362 388.160,187.930 387.815 C 189.241 387.527,189.317 387.342,189.830 383.204 C 190.095 381.064,191.817 377.382,193.020 376.384 C 193.339 376.119,193.600 375.685,193.600 375.421 C 193.600 375.156,194.019 374.546,194.530 374.066 C 195.607 373.054,195.597 370.562,194.518 370.976 C 194.197 371.099,193.720 371.200,193.458 371.200 C 193.196 371.200,192.660 371.798,192.267 372.528 C 190.477 375.851,187.636 375.885,186.183 372.599 C 185.092 370.134,183.166 369.195,182.024 370.571 M214.922 370.462 C 209.062 371.776,207.277 380.944,211.914 385.908 C 215.163 389.386,221.598 388.655,224.200 384.511 C 225.693 382.133,226.002 375.948,224.700 374.510 C 224.315 374.085,224.000 373.535,224.000 373.289 C 224.000 371.260,218.709 369.613,214.922 370.462 M220.100 374.310 C 220.998 375.098,221.133 382.591,220.271 383.771 C 217.486 387.579,213.244 383.718,213.730 377.816 C 214.129 372.975,216.862 371.471,220.100 374.310 " stroke="none" fill="#222320" fill-rule="evenodd"></path><path id="path1" d="M185.756 50.800 C 185.072 50.952,184.087 51.374,183.567 51.738 C 183.047 52.102,182.240 52.400,181.773 52.400 C 180.797 52.400,179.600 53.561,179.600 54.508 C 179.600 54.863,179.420 55.264,179.200 55.400 C 177.985 56.151,178.972 56.499,181.618 56.253 C 184.729 55.964,185.132 56.097,187.385 58.161 C 188.414 59.103,189.089 59.458,189.385 59.212 C 190.385 58.382,193.820 58.047,201.800 58.000 C 206.420 57.973,210.560 57.941,211.000 57.930 C 211.440 57.919,213.169 57.884,214.843 57.851 C 216.716 57.816,218.133 57.587,218.530 57.258 C 218.887 56.962,220.073 56.730,221.187 56.739 C 222.681 56.750,223.200 56.605,223.200 56.177 C 223.200 55.776,223.657 55.602,224.700 55.605 C 227.634 55.616,228.305 56.155,228.931 59.000 C 229.028 59.440,229.128 59.059,229.154 58.154 C 229.207 56.248,228.219 54.737,226.265 53.736 C 225.569 53.380,224.528 52.600,223.952 52.002 L 222.903 50.915 204.952 50.720 C 195.078 50.612,186.440 50.648,185.756 50.800 M222.026 59.760 C 221.156 62.340,221.112 62.911,221.356 68.560 C 221.500 71.882,221.783 80.360,221.985 87.400 C 222.524 106.154,222.762 109.286,223.499 107.328 C 224.911 103.576,225.107 101.940,225.362 91.800 C 225.506 86.080,225.708 80.680,225.811 79.800 C 225.914 78.920,226.188 74.682,226.420 70.382 C 226.885 61.780,226.756 60.892,224.883 59.785 C 224.242 59.407,223.547 58.626,223.337 58.049 C 222.981 57.067,222.896 57.177,222.026 59.760 M228.293 62.787 C 227.956 63.549,227.745 64.449,227.824 64.787 C 228.159 66.203,229.150 68.969,229.191 68.600 C 229.215 68.380,229.388 67.408,229.575 66.440 C 229.804 65.252,229.751 64.147,229.411 63.040 L 228.908 61.400 228.293 62.787 M184.087 62.500 C 183.125 63.669,182.668 67.975,183.149 71.336 C 183.406 73.131,183.782 76.580,183.985 79.000 C 184.188 81.420,184.483 84.648,184.640 86.173 L 184.925 88.945 185.457 86.973 C 185.750 85.888,186.163 83.110,186.376 80.800 C 186.588 78.490,187.069 74.710,187.443 72.400 C 188.346 66.833,188.014 63.117,186.555 62.452 C 185.272 61.868,184.596 61.881,184.087 62.500 M177.503 63.128 C 177.376 63.615,177.273 70.265,177.274 77.906 L 177.277 91.800 177.786 86.200 C 178.983 73.015,178.801 58.165,177.503 63.128 M210.503 62.686 C 210.141 62.816,210.118 63.073,210.417 63.632 C 210.948 64.624,211.600 64.619,211.600 63.624 C 211.600 62.743,211.229 62.426,210.503 62.686 M216.043 64.768 C 215.008 65.548,215.105 67.491,216.226 68.421 C 216.542 68.683,216.812 69.191,216.827 69.549 C 216.841 69.907,217.101 69.406,217.404 68.435 C 218.335 65.447,217.637 63.565,216.043 64.768 M206.623 65.883 C 205.912 67.738,212.298 69.260,213.804 67.595 C 214.796 66.499,213.328 65.827,210.703 66.175 C 209.249 66.368,208.472 66.277,207.796 65.834 C 206.965 65.290,206.849 65.295,206.623 65.883 M228.864 101.349 C 228.808 111.541,228.870 112.840,229.396 112.403 C 229.767 112.096,229.904 111.557,229.759 110.979 C 229.631 110.468,229.391 105.494,229.227 99.925 L 228.928 89.800 228.864 101.349 M178.800 109.922 C 178.800 110.882,178.492 111.884,178.006 112.501 C 177.217 113.504,177.217 113.511,178.002 113.716 C 179.025 113.984,179.718 115.843,179.409 117.491 C 179.010 119.618,177.200 120.119,174.200 118.932 C 170.809 117.590,150.195 117.014,125.389 117.569 L 114.177 117.820 112.189 118.962 C 106.846 122.031,106.474 123.238,107.150 135.299 C 107.413 139.974,107.886 145.600,108.201 147.800 C 108.517 150.000,108.780 152.470,108.787 153.289 C 108.794 154.107,109.261 155.817,109.825 157.089 C 111.096 159.955,111.808 159.270,111.664 155.321 C 111.588 153.230,111.694 152.778,112.343 152.431 C 113.325 151.905,114.083 153.506,113.952 155.832 C 113.834 157.935,114.865 159.805,116.448 160.357 C 118.582 161.101,141.986 160.840,170.618 159.753 C 178.609 159.450,179.871 159.839,177.824 161.975 C 176.565 163.289,176.562 163.464,177.767 165.237 C 178.298 166.019,178.793 167.186,178.867 167.830 L 179.000 169.000 179.900 167.553 C 180.944 165.874,181.063 163.670,180.200 162.000 C 179.454 160.557,180.046 160.073,182.246 160.329 C 184.373 160.578,184.893 162.116,184.685 167.545 C 183.193 206.470,183.225 206.777,188.325 203.402 C 190.212 202.154,191.610 202.020,205.200 201.788 C 211.030 201.689,216.520 201.465,217.400 201.291 C 218.798 201.015,219.093 201.091,219.735 201.896 C 222.906 205.864,225.890 202.010,224.413 195.854 C 223.903 193.728,224.046 189.052,224.745 185.000 L 225.020 183.400 226.060 185.478 L 227.099 187.555 227.750 184.278 C 229.041 177.776,228.443 174.451,226.068 174.926 C 225.008 175.138,224.836 175.011,224.160 173.511 C 222.652 170.167,223.797 160.793,225.711 160.806 C 226.377 160.811,226.461 160.900,226.045 161.164 C 225.375 161.588,225.609 165.246,226.365 166.157 C 227.641 167.695,231.202 164.056,230.634 161.794 C 230.115 159.726,235.565 159.516,271.403 160.220 C 293.606 160.656,294.791 160.187,294.798 150.967 C 294.800 147.277,294.928 147.004,296.246 147.867 C 297.414 148.632,297.422 148.889,296.350 151.104 C 295.624 152.603,295.571 153.018,295.989 153.930 C 296.258 154.519,296.573 155.900,296.688 157.000 C 296.943 159.438,297.200 159.864,297.200 157.848 C 297.200 156.761,297.480 156.103,298.241 155.397 L 299.283 154.431 299.472 144.116 C 299.865 122.620,299.879 122.737,296.592 119.497 L 294.747 117.677 289.766 117.390 C 287.027 117.232,273.745 117.179,260.250 117.272 L 235.714 117.442 233.458 118.621 C 230.142 120.353,229.094 119.720,228.771 115.787 L 228.541 113.000 228.471 116.420 C 228.371 121.267,228.898 121.549,235.000 119.917 C 238.388 119.010,242.338 118.862,244.518 119.560 C 246.182 120.094,247.752 120.409,250.100 120.681 C 251.612 120.857,252.000 121.055,252.000 121.651 C 252.000 122.063,252.270 122.400,252.600 122.400 C 252.930 122.400,253.200 122.619,253.200 122.887 C 253.200 123.155,253.652 123.763,254.205 124.238 L 255.210 125.102 254.105 125.851 C 253.497 126.263,252.661 126.693,252.246 126.807 C 251.667 126.966,251.962 127.245,253.524 128.014 L 255.556 129.013 254.349 130.806 C 253.329 132.321,253.153 132.943,253.218 134.800 C 253.328 137.923,253.304 138.000,252.247 138.000 C 251.687 138.000,250.657 138.619,249.747 139.503 C 248.312 140.897,247.003 141.941,245.646 142.774 C 244.743 143.328,245.431 144.963,247.501 147.185 L 249.400 149.225 254.800 149.836 C 257.770 150.172,261.370 150.703,262.800 151.015 C 271.179 152.844,283.588 152.900,287.177 151.123 L 289.083 150.180 289.473 151.640 C 290.098 153.982,288.252 155.381,285.098 154.955 C 284.164 154.828,276.830 154.922,268.800 155.162 C 260.770 155.402,247.650 155.607,239.644 155.617 C 220.905 155.641,221.134 155.553,221.266 162.680 C 221.336 166.460,220.719 172.366,220.081 174.007 C 219.866 174.561,219.669 176.423,219.643 178.145 C 219.617 179.867,219.488 181.707,219.356 182.233 L 219.116 183.191 217.980 182.295 C 217.232 181.705,216.837 181.017,216.822 180.276 C 216.810 179.658,216.647 179.247,216.460 179.363 C 216.273 179.478,215.883 179.129,215.593 178.586 C 215.175 177.806,214.724 177.587,213.432 177.539 C 212.535 177.506,211.620 177.436,211.400 177.385 C 211.180 177.334,210.780 177.272,210.510 177.246 C 210.241 177.221,209.741 176.660,209.400 176.000 C 208.676 174.599,203.444 174.187,201.835 175.404 C 201.400 175.734,200.674 175.883,200.149 175.751 C 199.541 175.599,198.854 175.814,198.127 176.386 C 196.748 177.471,193.527 177.201,192.092 175.881 L 191.184 175.045 190.492 176.008 C 190.111 176.538,189.599 177.518,189.354 178.186 C 188.955 179.273,188.876 178.981,188.605 175.400 C 188.438 173.200,188.046 170.899,187.734 170.288 C 187.349 169.533,187.167 167.804,187.167 164.908 C 187.167 156.877,186.066 155.893,177.255 156.047 C 165.589 156.252,133.079 155.139,132.108 154.503 C 131.608 154.176,131.200 154.041,131.200 154.203 C 131.200 154.365,130.973 154.310,130.696 154.080 C 129.460 153.054,125.282 153.034,125.089 154.052 C 124.912 154.982,124.908 154.983,124.854 154.100 C 124.776 152.798,123.079 152.870,122.473 154.200 C 121.294 156.787,118.140 155.138,118.697 152.226 C 118.858 151.382,119.012 151.300,119.842 151.616 C 120.369 151.816,120.800 151.867,120.800 151.728 C 120.800 151.589,121.158 151.800,121.596 152.197 C 122.904 153.380,142.858 152.396,144.316 151.076 C 144.840 150.602,146.371 150.268,149.432 149.961 C 151.834 149.720,154.052 149.445,154.360 149.351 C 155.342 149.050,153.227 147.207,151.830 147.147 C 150.850 147.104,150.966 147.034,152.400 146.802 C 156.792 146.091,157.615 145.286,155.100 144.161 C 154.165 143.742,152.770 142.847,152.000 142.170 C 151.230 141.494,149.567 140.529,148.304 140.025 C 147.041 139.522,146.089 138.980,146.187 138.821 C 146.285 138.663,145.578 137.760,144.616 136.816 L 142.867 135.099 143.834 134.204 C 144.414 133.666,144.806 132.847,144.814 132.154 C 144.854 129.013,148.211 127.932,157.620 128.033 C 160.165 128.060,163.070 127.858,164.157 127.579 L 166.115 127.076 164.457 126.097 C 162.727 125.075,162.443 124.622,163.324 124.284 C 163.613 124.174,164.064 123.364,164.327 122.486 C 165.190 119.605,168.518 118.807,173.865 120.200 C 180.522 121.934,181.726 120.639,180.193 113.400 C 179.867 111.860,179.600 110.206,179.600 109.724 C 179.600 109.242,179.420 108.736,179.200 108.600 C 178.959 108.451,178.800 108.978,178.800 109.922 M253.400 115.600 C 252.281 115.885,252.316 115.909,253.924 115.953 C 254.981 115.982,255.552 115.845,255.400 115.600 C 255.129 115.161,255.125 115.161,253.400 115.600 M126.326 116.054 C 125.991 116.267,126.344 116.390,127.300 116.394 C 128.125 116.397,128.800 116.331,128.800 116.247 C 128.800 115.900,126.813 115.746,126.326 116.054 M295.848 120.500 C 297.154 121.991,297.750 123.531,297.776 125.476 C 297.802 127.486,296.994 128.312,296.587 126.690 C 296.453 126.158,295.533 125.045,294.543 124.217 C 293.552 123.389,292.600 122.328,292.427 121.860 C 291.672 119.822,294.330 118.765,295.848 120.500 M112.798 124.803 L 111.553 126.374 111.438 134.993 C 111.374 139.733,111.233 143.701,111.123 143.810 C 110.861 144.073,110.227 134.102,110.302 130.900 C 110.404 126.565,110.404 126.240,110.301 124.400 C 110.206 122.706,110.282 122.559,111.592 121.905 C 113.846 120.780,114.582 122.550,112.798 124.803 M156.500 125.089 C 155.785 125.178,154.615 125.178,153.900 125.089 C 153.185 125.001,153.770 124.928,155.200 124.928 C 156.630 124.928,157.215 125.001,156.500 125.089 M117.970 129.100 C 117.953 129.265,117.697 130.030,117.400 130.800 L 116.861 132.200 116.830 130.500 C 116.808 129.242,116.956 128.800,117.400 128.800 C 117.730 128.800,117.986 128.935,117.970 129.100 M289.083 132.495 C 288.987 132.993,288.905 132.680,288.901 131.800 C 288.896 130.920,288.975 130.513,289.075 130.895 C 289.175 131.278,289.179 131.998,289.083 132.495 M289.172 147.700 C 289.148 148.789,289.088 148.870,288.800 148.200 C 288.325 147.095,288.325 146.400,288.800 146.400 C 289.020 146.400,289.187 146.985,289.172 147.700 M178.870 183.200 L 178.888 189.000 179.459 186.800 C 180.065 184.466,179.959 180.153,179.253 178.400 C 178.957 177.663,178.856 178.927,178.870 183.200 M219.282 189.966 C 219.339 193.445,218.795 194.269,217.666 192.413 L 216.879 191.119 217.840 189.704 C 218.368 188.925,218.800 187.923,218.800 187.478 C 218.800 187.032,218.898 186.764,219.017 186.884 C 219.137 187.004,219.256 188.391,219.282 189.966 M178.800 197.070 L 178.800 202.939 179.797 202.003 C 180.974 200.897,181.008 195.430,179.857 192.674 C 178.899 190.382,178.800 190.794,178.800 197.070 M188.100 208.276 C 188.485 208.376,189.115 208.376,189.500 208.276 C 189.885 208.175,189.570 208.093,188.800 208.093 C 188.030 208.093,187.715 208.175,188.100 208.276 M201.300 228.287 C 201.025 228.386,200.800 228.722,200.800 229.033 C 200.800 229.660,201.518 229.767,202.319 229.259 C 202.972 228.845,202.089 228.003,201.300 228.287 M203.200 228.738 C 203.200 230.513,206.077 231.543,208.867 230.766 L 210.600 230.283 209.309 229.932 C 208.599 229.740,207.831 229.232,207.602 228.804 C 207.254 228.154,207.011 228.092,206.128 228.428 C 205.409 228.701,204.937 228.697,204.655 228.415 C 203.996 227.756,203.200 227.933,203.200 228.738 M179.850 248.230 C 180.038 250.060,179.943 250.948,179.466 251.830 C 179.117 252.473,178.825 252.794,178.816 252.543 C 178.807 252.291,178.485 251.966,178.100 251.819 C 177.715 251.672,178.120 252.254,179.000 253.112 C 180.932 254.996,181.187 254.751,181.191 251.000 C 181.194 248.867,181.005 247.914,180.397 247.000 L 179.600 245.800 179.850 248.230 M178.413 247.200 C 178.350 247.310,178.257 247.760,178.208 248.200 C 178.159 248.640,177.982 249.450,177.816 250.000 C 177.536 250.928,177.563 250.954,178.187 250.356 C 178.642 249.920,178.806 249.274,178.694 248.356 C 178.603 247.610,178.476 247.090,178.413 247.200 M223.600 302.600 C 223.050 302.888,222.105 303.351,221.500 303.629 C 220.895 303.907,220.400 304.368,220.400 304.654 C 220.400 304.939,220.065 305.351,219.655 305.571 C 218.890 305.980,217.729 308.263,218.098 308.631 C 218.211 308.745,218.419 308.379,218.560 307.819 C 218.700 307.258,218.991 306.800,219.206 306.800 C 219.422 306.800,220.273 306.198,221.099 305.462 C 223.601 303.233,225.056 302.953,225.599 304.596 C 225.842 305.333,226.347 306.175,226.720 306.468 C 227.322 306.939,227.341 306.925,226.887 306.344 C 226.605 305.983,226.151 304.916,225.878 303.974 C 225.318 302.040,225.018 301.859,223.600 302.600 M187.900 306.012 C 188.395 306.211,188.800 306.542,188.800 306.748 C 188.800 306.953,189.442 307.500,190.226 307.962 L 191.652 308.804 190.892 309.902 C 190.474 310.506,189.818 311.810,189.433 312.800 C 188.713 314.651,187.741 316.000,187.128 316.000 C 186.434 316.000,182.603 313.096,182.714 312.654 C 182.777 312.404,183.182 311.357,183.614 310.326 C 184.046 309.295,184.396 308.035,184.391 307.526 C 184.386 307.017,183.874 308.040,183.254 309.800 L 182.126 313.000 183.696 314.800 C 186.420 317.923,190.000 317.220,190.000 313.561 C 190.000 313.071,190.464 311.879,191.031 310.912 C 192.058 309.159,191.734 307.200,190.418 307.200 C 190.218 307.200,189.940 306.840,189.800 306.400 C 189.614 305.812,189.208 305.607,188.273 305.625 C 187.110 305.649,187.077 305.682,187.900 306.012 M218.041 309.726 C 217.875 312.672,222.552 315.644,224.087 313.568 C 224.562 312.926,225.152 312.400,225.399 312.400 C 225.645 312.400,226.196 312.117,226.624 311.771 C 227.357 311.177,227.324 311.155,226.019 311.377 C 225.260 311.507,224.258 311.970,223.793 312.406 C 222.399 313.717,219.180 312.410,218.485 310.251 C 218.250 309.523,218.065 309.304,218.041 309.726 M223.947 316.738 C 223.426 317.137,222.100 317.703,221.000 317.995 C 219.900 318.287,218.138 318.858,217.085 319.263 C 216.032 319.668,214.755 320.000,214.247 320.000 C 213.739 320.000,212.772 320.275,212.099 320.611 C 209.754 321.781,206.000 321.195,206.000 319.659 C 206.000 319.240,205.685 318.651,205.300 318.349 C 204.667 317.852,204.652 317.866,205.145 318.495 C 205.605 319.082,205.605 319.217,205.145 319.360 C 203.431 319.892,202.836 319.872,202.607 319.273 C 202.405 318.749,202.202 318.835,201.467 319.757 C 200.687 320.735,200.223 320.906,197.828 321.099 L 195.083 321.319 195.354 320.241 C 195.765 318.605,195.427 318.451,192.706 319.034 C 188.547 319.927,186.000 319.726,186.000 318.507 C 186.000 318.040,185.711 317.958,184.750 318.150 C 184.063 318.288,183.043 318.400,182.483 318.400 C 181.924 318.400,181.587 318.520,181.734 318.668 C 181.881 318.815,181.719 319.247,181.374 319.628 C 180.846 320.212,180.755 321.520,180.802 327.861 C 180.894 340.479,181.941 345.664,184.016 343.785 C 184.734 343.136,184.821 343.164,185.833 344.366 C 186.993 345.745,188.750 346.801,189.880 346.799 C 190.372 346.797,190.176 346.539,189.261 345.981 C 188.094 345.269,187.672 343.517,188.533 342.958 C 188.570 342.934,191.480 343.064,195.000 343.248 C 199.109 343.463,204.558 343.417,210.222 343.119 C 219.625 342.624,220.225 342.680,220.770 344.091 C 221.519 346.034,221.145 346.087,206.232 346.174 C 196.809 346.228,192.246 346.394,191.947 346.693 C 191.307 347.333,202.544 347.490,218.890 347.069 C 221.375 347.005,221.671 346.901,222.768 345.700 C 223.421 344.985,224.137 344.400,224.359 344.400 C 225.255 344.400,225.670 340.938,225.872 331.800 C 226.109 321.022,225.952 320.000,224.053 320.000 C 222.668 320.000,222.011 318.914,223.281 318.725 C 223.742 318.656,224.317 318.240,224.559 317.800 C 224.802 317.360,225.154 316.888,225.343 316.750 C 225.531 316.613,225.507 316.390,225.290 316.255 C 225.072 316.121,224.468 316.338,223.947 316.738 M219.321 320.967 C 219.465 321.637,217.149 322.164,216.766 321.549 C 216.525 321.161,216.685 320.922,217.312 320.736 C 218.431 320.402,219.219 320.493,219.321 320.967 " stroke="none" fill="#d9c930" fill-rule="evenodd"></path><path id="path2" d="M385.500 127.966 C 385.995 128.442,386.400 129.214,386.400 129.682 C 386.400 130.150,386.512 130.422,386.648 130.285 C 387.132 129.801,386.377 128.016,385.495 127.562 L 384.600 127.101 385.500 127.966 M387.246 131.067 C 387.221 131.324,387.084 131.864,386.941 132.267 C 386.740 132.836,386.794 132.897,387.179 132.542 C 387.452 132.291,387.589 131.751,387.484 131.342 C 387.379 130.934,387.272 130.810,387.246 131.067 M395.059 165.000 C 395.585 167.334,396.009 168.301,395.761 166.600 C 395.632 165.720,395.361 164.730,395.158 164.400 C 394.911 163.998,394.878 164.197,395.059 165.000 M397.682 168.782 C 397.637 169.761,397.384 172.503,397.121 174.873 C 396.701 178.645,396.725 179.521,397.314 181.892 C 397.869 184.126,398.013 187.258,398.134 199.800 C 398.215 208.160,398.419 215.405,398.587 215.900 C 399.077 217.340,400.000 217.013,400.000 215.400 C 400.000 214.493,399.810 214.000,399.461 214.000 C 398.779 214.000,398.404 208.107,398.402 197.359 C 398.400 188.236,398.688 184.800,399.457 184.800 C 400.523 184.800,400.192 178.674,399.100 178.195 C 398.248 177.821,398.189 177.515,397.982 172.400 C 397.862 169.430,397.727 167.802,397.682 168.782 M396.501 171.800 C 396.505 172.680,396.587 172.993,396.683 172.495 C 396.779 171.998,396.775 171.278,396.675 170.895 C 396.575 170.513,396.496 170.920,396.501 171.800 M164.624 209.561 C 164.540 209.697,165.490 209.859,166.736 209.920 C 167.981 209.982,169.590 210.220,170.311 210.451 L 171.623 210.869 170.156 212.035 C 169.350 212.676,168.296 213.200,167.815 213.200 C 167.333 213.200,166.517 213.650,166.000 214.200 C 165.483 214.750,164.687 215.214,164.230 215.232 C 163.774 215.249,163.623 215.353,163.897 215.464 C 164.170 215.574,165.018 215.458,165.781 215.206 C 169.818 213.874,177.155 221.588,177.760 227.800 C 178.244 232.764,178.515 233.330,181.100 234.768 C 182.365 235.472,183.965 236.442,184.656 236.924 C 185.347 237.406,186.453 238.096,187.115 238.458 C 187.887 238.880,188.414 239.553,188.586 240.335 C 188.811 241.360,189.167 241.658,190.827 242.209 C 191.912 242.569,192.800 243.016,192.800 243.201 C 192.800 243.387,193.340 243.269,194.000 242.940 C 195.250 242.317,195.702 241.322,194.531 241.771 C 194.163 241.912,192.917 241.832,191.762 241.592 L 189.662 241.156 190.329 239.995 C 190.695 239.357,191.399 238.782,191.893 238.717 C 192.986 238.575,188.964 235.162,186.479 234.124 C 183.873 233.035,181.628 229.699,181.609 226.888 C 181.586 223.471,178.214 218.175,174.707 216.049 C 173.886 215.551,172.857 214.642,172.421 214.029 L 171.627 212.914 172.539 212.057 C 173.041 211.586,173.935 211.200,174.526 211.200 C 175.117 211.200,175.600 210.990,175.600 210.733 C 175.600 210.477,175.495 210.371,175.367 210.499 C 175.239 210.627,174.474 210.447,173.667 210.100 C 172.211 209.472,164.947 209.039,164.624 209.561 M236.000 209.641 C 234.790 209.842,233.485 210.044,233.100 210.089 C 232.715 210.134,232.400 210.388,232.400 210.652 C 232.400 210.917,232.175 211.222,231.900 211.330 C 231.625 211.438,232.055 211.433,232.855 211.318 C 234.279 211.114,236.000 212.127,236.000 213.169 C 236.000 213.745,233.983 216.000,233.464 216.004 C 233.209 216.006,232.224 216.625,231.276 217.379 C 230.327 218.133,229.427 218.806,229.276 218.875 C 228.366 219.288,226.405 224.414,225.603 228.476 C 225.154 230.748,223.961 232.791,223.071 232.811 C 222.812 232.817,221.534 233.627,220.230 234.611 C 218.927 235.595,217.628 236.400,217.344 236.400 C 217.060 236.400,216.627 236.775,216.382 237.234 C 216.136 237.692,215.365 238.310,214.668 238.605 C 213.226 239.216,211.707 240.780,212.504 240.832 C 212.777 240.850,212.484 241.093,211.854 241.371 C 210.716 241.874,210.723 241.879,212.854 242.135 C 217.070 242.642,217.379 242.564,218.575 240.700 C 219.365 239.468,220.934 238.174,224.270 236.000 C 229.770 232.416,229.160 233.299,229.864 227.908 C 230.646 221.918,230.795 221.674,236.366 217.241 C 238.653 215.421,239.141 215.200,240.866 215.200 C 242.603 215.200,242.801 215.109,242.805 214.300 C 242.808 213.805,242.916 212.950,243.045 212.400 C 243.251 211.520,243.179 211.556,242.445 212.700 C 241.505 214.167,241.271 214.241,240.176 213.413 C 239.749 213.090,238.860 212.818,238.200 212.810 C 237.313 212.798,236.877 212.528,236.527 211.774 C 235.910 210.445,236.460 210.215,240.269 210.206 C 241.848 210.203,242.918 210.076,242.648 209.924 C 241.752 209.420,238.230 209.271,236.000 209.641 M241.081 220.006 C 236.518 221.740,234.499 224.523,234.217 229.465 L 234.038 232.600 234.434 229.418 C 235.035 224.587,237.518 221.531,241.802 220.348 C 242.571 220.136,243.200 219.791,243.200 219.581 C 243.200 219.372,243.155 219.217,243.100 219.238 C 243.045 219.259,242.136 219.604,241.081 220.006 M165.600 219.749 C 165.600 219.837,166.815 220.635,168.300 221.523 C 171.146 223.224,172.042 224.234,172.447 226.200 L 172.695 227.400 172.747 226.159 C 172.811 224.651,171.437 222.500,169.797 221.542 C 168.362 220.704,165.600 219.524,165.600 219.749 M396.971 222.000 C 397.093 223.210,397.195 225.265,397.197 226.567 C 397.198 227.868,397.310 228.824,397.444 228.689 C 397.881 228.252,397.678 221.266,397.207 220.522 C 396.843 219.949,396.794 220.253,396.971 222.000 M396.224 228.655 C 395.974 232.393,396.023 232.989,396.626 233.555 C 397.264 234.154,397.288 234.143,396.957 233.400 C 396.761 232.960,396.658 230.755,396.728 228.500 C 396.894 223.141,396.587 223.236,396.224 228.655 M172.887 228.600 C 172.891 229.040,173.032 229.940,173.200 230.600 C 173.474 231.678,173.506 231.698,173.513 230.800 C 173.517 230.250,173.376 229.350,173.200 228.800 C 172.949 228.016,172.881 227.973,172.887 228.600 M216.420 239.810 C 218.736 241.008,217.759 242.253,215.039 241.568 C 213.255 241.119,213.244 241.105,213.865 240.157 C 214.601 239.033,214.851 238.999,216.420 239.810 M202.813 268.316 C 202.806 269.040,202.216 270.750,201.502 272.116 C 199.906 275.170,199.814 277.956,201.167 282.306 C 202.064 285.193,202.066 285.228,201.335 287.506 C 200.376 290.499,200.383 295.176,201.351 297.595 C 201.855 298.854,202.028 300.159,201.934 301.984 C 201.826 304.083,201.919 304.604,202.421 304.704 C 202.919 304.804,203.008 304.527,202.867 303.320 C 202.679 301.715,202.857 301.734,204.746 303.519 C 205.573 304.301,205.583 304.178,205.141 298.591 C 204.660 292.526,204.667 291.822,205.223 290.134 C 205.959 287.898,205.784 283.624,204.817 280.220 C 203.843 276.793,203.894 274.539,204.993 272.413 C 205.327 271.768,205.576 270.556,205.547 269.720 L 205.495 268.200 205.238 269.600 L 204.982 271.000 204.530 269.800 C 203.664 267.499,202.828 266.776,202.813 268.316 M381.385 280.139 C 381.859 280.486,382.008 280.879,381.802 281.239 C 381.549 281.684,381.590 281.700,382.004 281.317 C 382.576 280.788,381.933 279.600,381.075 279.600 C 380.839 279.600,380.979 279.843,381.385 280.139 M210.493 286.000 C 210.493 286.770,210.575 287.085,210.676 286.700 C 210.776 286.315,210.776 285.685,210.676 285.300 C 210.575 284.915,210.493 285.230,210.493 286.000 M209.320 293.600 C 209.320 294.810,209.395 295.305,209.487 294.700 C 209.578 294.095,209.578 293.105,209.487 292.500 C 209.395 291.895,209.320 292.390,209.320 293.600 " stroke="none" fill="#4c8499" fill-rule="evenodd"></path></g></svg>